<?xml version="1.0" encoding="UTF-8" standalone="no"?>
<!-- Created with Inkscape (http://www.inkscape.org/) -->

<svg
   xmlns:dc="http://purl.org/dc/elements/1.1/"
   xmlns:cc="http://creativecommons.org/ns#"
   xmlns:rdf="http://www.w3.org/1999/02/22-rdf-syntax-ns#"
   xmlns:svg="http://www.w3.org/2000/svg"
   xmlns="http://www.w3.org/2000/svg"
   xmlns:sodipodi="http://sodipodi.sourceforge.net/DTD/sodipodi-0.dtd"
   xmlns:inkscape="http://www.inkscape.org/namespaces/inkscape"
   width="66.980675mm"
   height="49.734715mm"
   viewBox="0 0 66.980677 49.734714"
   version="1.1"
   id="svg8"
   inkscape:version="0.92.4 (5da689c313, 2019-01-14)"
   sodipodi:docname="camera - SVG.svg">
  <defs
     id="defs2" />
  <sodipodi:namedview
     id="base"
     pagecolor="#ffffff"
     bordercolor="#666666"
     borderopacity="1.0"
     inkscape:pageopacity="0.0"
     inkscape:pageshadow="2"
     inkscape:zoom="1.4"
     inkscape:cx="-197.15322"
     inkscape:cy="162.47141"
     inkscape:document-units="mm"
     inkscape:current-layer="layer1"
     showgrid="false"
     inkscape:window-width="1920"
     inkscape:window-height="1001"
     inkscape:window-x="-9"
     inkscape:window-y="-9"
     inkscape:window-maximized="1" />
  <metadata
     id="metadata5">
    <rdf:RDF>
      <cc:Work
         rdf:about="">
        <dc:format>image/svg+xml</dc:format>
        <dc:type
           rdf:resource="http://purl.org/dc/dcmitype/StillImage" />
        <dc:title />
      </cc:Work>
    </rdf:RDF>
  </metadata>
  <g
     inkscape:label="Camada 1"
     inkscape:groupmode="layer"
     id="layer1"
     transform="translate(-95.45633,-126.16007)">
    <path
       fill="param(fill)" 
	   fill-opacity="param(fill-opacity)" 
	   stroke="param(outline)" 
	   stroke-opacity="param(outline-opacity)" 
	   stroke-width="param(outline-width)"
       d="m 98.333697,174.38253 c -0.321808,-0.16989 -0.764321,-0.56333 -0.983378,-0.87432 l -0.398249,-0.56543 -0.03942,-17.74487 c -0.0275,-12.36286 0.003,-17.89402 0.103135,-18.2367 0.192118,-0.66272 0.740531,-1.28631 1.391206,-1.58185 0.502316,-0.22818 1.075824,-0.2439 8.997239,-0.24663 l 8.46075,-0.003 0.0657,-0.2987 c 0.0361,-0.1643 0.18481,-1.2983 0.33053,-2.52001 0.2851,-2.39073 0.47845,-2.97837 1.2495,-3.79782 0.22945,-0.24381 0.71587,-0.60225 1.08095,-0.79653 l 0.66379,-0.35324 h 9.6249 9.62487 l 0.66379,0.35324 c 0.36508,0.19428 0.85151,0.55272 1.08094,0.79653 0.77105,0.81945 0.96439,1.40709 1.24952,3.79782 0.14576,1.22171 0.29443,2.35571 0.33051,2.52001 l 0.0657,0.2987 8.52711,0.003 c 7.98584,0.003 8.56117,0.0184 9.06363,0.24663 0.6507,0.29554 1.19911,0.91913 1.39123,1.58185 0.0993,0.34268 0.13064,5.87384 0.10314,18.2367 l -0.0395,17.74487 -0.39828,0.56543 c -0.21904,0.31099 -0.66157,0.70443 -0.98335,0.87432 l -0.58511,0.3089 H 128.9469 98.919177 Z m 31.940403,-3.27625 c 1.58942,-0.15157 2.26874,-0.29414 3.85986,-0.80994 2.36319,-0.7661 4.25089,-1.92756 6.18282,-3.80412 2.00449,-1.94709 3.30661,-4.03899 4.15149,-6.66958 0.59458,-1.85134 0.78337,-3.06001 0.77756,-4.97839 -0.009,-2.66443 -0.50376,-4.76397 -1.69923,-7.1968 -2.29067,-4.6616 -6.69698,-7.97109 -11.79695,-8.86044 -1.48945,-0.25974 -4.09158,-0.26414 -5.55243,-0.009 -6.75691,1.17831 -12.13834,6.55649 -13.31562,13.30765 -0.25628,1.46952 -0.25269,4.06907 0.008,5.5621 0.84868,4.86662 4.0035,9.23736 8.32814,11.53796 2.32005,1.23419 4.43403,1.80491 7.52996,2.0329 0.10955,0.009 0.79655,-0.0424 1.52671,-0.11199 z m -2.48119,-6.37849 c -2.5103,-0.28948 -4.92487,-1.60722 -6.55531,-3.57758 -0.74958,-0.90586 -1.70766,-2.8372 -1.97565,-3.98271 -0.29648,-1.2672 -0.26824,-3.56345 0.0596,-4.84529 0.72154,-2.82121 2.61248,-5.14459 5.24399,-6.44331 1.30498,-0.64403 2.31328,-0.9143 3.78358,-1.0141 4.04039,-0.27431 7.87653,1.95377 9.62511,5.59035 0.61748,1.28414 0.86718,2.29374 0.95565,3.86348 0.10283,1.82508 -0.17721,3.17828 -1.01535,4.90659 -1.84849,3.81168 -5.86224,5.99374 -10.12163,5.50257 z m 30.16105,-24.61959 v -2.05773 h -6.96976 -6.96974 v 2.05773 2.05774 h 6.96974 6.96976 z"
       id="path43"
       inkscape:connector-curvature="0"
       inkscape:export-xdpi="4.8471155"
       inkscape:export-ydpi="4.8471155" />
  </g>
</svg>
