<?xml version="1.0" encoding="UTF-8" standalone="no"?>
<svg
   version="1.0"
   width="900.302pt"
   height="464.19614pt"
   viewBox="0 0 900.302 464.19614"
   preserveAspectRatio="xMidYMid"
   id="svg10"
   sodipodi:docname="ChatGPT Image 25 de out. de 2025, 14_32_10.svg"
   xml:space="preserve"
   inkscape:version="1.2.2 (732a01da63, 2022-12-09)"
   xmlns:inkscape="http://www.inkscape.org/namespaces/inkscape"
   xmlns:sodipodi="http://sodipodi.sourceforge.net/DTD/sodipodi-0.dtd"
   xmlns="http://www.w3.org/2000/svg"
   xmlns:svg="http://www.w3.org/2000/svg"><defs
     id="defs14" /><sodipodi:namedview
     id="namedview12"
     pagecolor="#ffffff"
     bordercolor="#999999"
     borderopacity="1"
     inkscape:showpageshadow="0"
     inkscape:pageopacity="0"
     inkscape:pagecheckerboard="0"
     inkscape:deskcolor="#d1d1d1"
     inkscape:document-units="pt"
     showgrid="false"
     inkscape:zoom="0.31311035"
     inkscape:cx="-188.43197"
     inkscape:cy="670.69006"
     inkscape:window-width="1920"
     inkscape:window-height="1009"
     inkscape:window-x="1912"
     inkscape:window-y="-8"
     inkscape:window-maximized="1"
     inkscape:current-layer="svg10" /><metadata
     id="metadata2">
Created by potrace 1.16, written by Peter Selinger 2001-2019
</metadata><g
     id="g6866"
     transform="translate(-61.275023,-201.32116)"><circle
       style="opacity:1;fill:#f2ebde;fill-opacity:1;fill-rule:evenodd;stroke-width:0;stroke-linecap:round;stroke-linejoin:round"
       id="path2666"
       cx="512.72186"
       cy="491.44302"
       r="164.51566" /><g
       transform="matrix(0.1,0,0,-0.1,0,1024)"
       fill="#000000"
       stroke="none"
       id="g8"
       style="fill:#4c1c2b;fill-opacity:1"><path
         d="m 2310,8221 c -44,-14 -84,-38 -112,-68 -32,-33 -67,-108 -68,-142 0,-22 -3,-23 -47,-18 -27,3 -81,13 -121,21 -63,14 -142,16 -556,14 l -483,-3 -36,-28 c -49,-37 -71,-81 -71,-142 0,-61 22,-105 71,-142 l 36,-28 501,-3 c 505,-3 519,-2 684,34 l 23,5 -2,-141 -1,-140 -41,-11 c -94,-25 -167,-86 -209,-174 l -28,-60 v -331 c 0,-302 2,-338 20,-395 73,-238 312,-379 580,-341 45,7 101,20 125,31 l 44,20 403,-240 c 378,-224 403,-241 402,-267 0,-15 -7,-67 -15,-117 -21,-141 -17,-395 10,-539 12,-65 20,-120 19,-121 105.0447,-439.7877 212.1546,-551.3577 513,-854 l 52,-44 c 225,-190 485,-316 778,-377 510,-105 1047,28 1454,360 l 71,58 c 311.0214,312.4762 304.5608,317.5222 471.6439,745.7028 C 6759.8649,4738.2335 6824,4921 6841,5016 c 29,158 31,411 5,567 -9,60 -16,110 -14,111 2,2 180,111 396,244 l 393,241 73,-24 c 147,-49 317,-41 446,22 76,37 169,132 207,213 50,104 55,153 51,495 l -3,310 -28,57 c -45,92 -126,160 -212,178 l -30,6 -3,142 c -1,78 1,142 6,142 5,0 51,-9 103,-20 86,-18 134,-20 577,-20 528,0 525,0 575,59 75,89 50,217 -53,269 -44,22 -47,22 -505,22 -437,-1 -466,-2 -580,-24 l -120,-23 -8,31 c -19,68 -43,109 -83,145 -48,42 -100,61 -168,61 -111,0 -209,-87 -231,-204 -6,-32 -11,-37 -29,-32 -11,3 -74,14 -140,25 -108,19 -160,21 -588,21 -517,0 -509,1 -565,-63 -74,-84 -50,-217 47,-267 38,-19 61,-20 532,-20 444,0 505,2 613,20 66,11 122,20 125,20 3,0 4,-64 3,-142 l -2,-142 -44,-13 c -105,-31 -195,-123 -216,-223 -6,-28 -11,-100 -11,-159 0,-109 0,-109 -26,-115 -14,-4 -229,-79 -477,-168 -249,-88 -468,-165 -488,-171 -35,-10 -38,-9 -120,58 -359,292 -802,432 -1256,396 -236,-19 -423,-68 -623,-162 -119,-57 -298,-173 -382,-248 -31,-28 -61,-51 -67,-51 -5,0 -101,32 -213,71 -470,164 -774,271 -795,279 -21,9 -23,16 -23,98 0,157 -26,239 -98,315 -38,39 -105,79 -154,91 l -28,6 v 141 142 l 38,-7 c 20,-3 73,-13 117,-21 63,-11 186,-14 578,-15 549,0 537,-1 594,63 74,84 46,212 -57,265 -44,22 -47,22 -515,22 -478,0 -535,-4 -726,-45 -24,-6 -27,-3 -33,36 -13,79 -60,145 -130,181 -43,22 -128,32 -166,19 z M 5340,6829 c 524,-62 987,-416 1203,-919 47,-111 84,-241 104,-365 23,-147 13,-422 -20,-565 -68,-288 -199,-523 -412,-735 -228,-228 -480,-363 -798,-427 -145,-29 -412,-31 -555,-5 -304,56 -574,193 -790,401 -264,254 -413,543 -463,895 -17,121 -6,421 20,532 69,300 203,541 421,760 347,348 773,489 1290,428 z"
         id="path4"
         sodipodi:nodetypes="ccccccccsccccccccccscccccccccccccccccccccccccccccscscccccccscccsccsssccccscccccccsccsccccccccccscccccccccccccccc"
         style="fill:#4c1c2b;fill-opacity:1" /></g><g
       id="g6234"
       style="fill:#4c1c2b;fill-opacity:1"><path
         id="path4-3-1"
         d="m 436.7716,631.54636 c -0.3104,-0.23284 -225.0573,-13.96463 -229.6367,-16.6036 l -3.6485,-2.0954 -3.3369,1.94078 c -8.3826,4.8122 -21.1888,6.05391 -31.2789,2.94928 -10.2452,-3.10466 -17.7747,-9.31366 -22.8197,-18.70519 -4.3466,-8.22729 -4.7343,-11.17697 -4.7343,-37.48882 0,-27.63129 0.3883,-29.57218 6.9081,-36.55763 3.4151,-3.72558 9.8564,-7.52778 12.7282,-7.52778 1.1643,0 1.32,-1.08739 1.32,-12.03126 0,-9.77962 -0.233,-12.03012 -1.0869,-12.03012 -0.6209,0 -5.2003,0.69816 -10.1677,1.55194 -8.1497,1.39711 -12.6518,1.55309 -44.164,1.55309 H 71.6951 l -3.4153,-1.78616 c -8.2274,-4.34651 -9.4692,-16.45424 -2.3285,-22.50829 4.3464,-3.64796 6.2096,-3.80349 45.328,-3.41541 34.2287,0.23286 37.1,0.38846 43.2316,1.94077 3.6481,0.9314 6.9857,1.70771 7.5291,1.70771 0.5432,0 1.3964,-1.39746 1.8622,-3.10503 4.0359,-13.27232 22.3539,-16.99807 31.9007,-6.36466 1.5524,1.70755 3.2598,4.5798 3.8031,6.28736 1.0866,3.72558 1.0874,3.72549 10.0131,1.47462 6.2093,-1.55231 9.0803,-1.63031 45.327,-1.94077 28.3298,-0.23284 39.6623,-0.0775 42.0685,0.54345 9.7795,2.7942 13.0392,16.14395 5.5881,23.05177 -4.3465,4.11365 -4.7346,4.11464 -44.2412,4.11464 -34.9272,0 -37.2561,-0.0786 -47.0358,-1.78616 -5.5884,-1.00901 -10.3999,-1.62985 -10.6328,-1.47462 -0.2329,0.23285 -0.3878,5.74375 -0.3878,12.18587 v 11.71974 l 4.191,1.32001 c 5.2778,1.70754 11.4874,7.06314 14.2038,12.49626 1.7077,3.25989 2.1727,5.35513 2.4833,12.03012 l 0.4661,8.07237 18.6278,7.14122 c 38.1533,1.14126 69.2443,4.82129 111.9398,-12.04543 21.865,21.58203 22.9007,22.12724 40.0352,54.37179 z"
         sodipodi:nodetypes="ccccccscssscscccccscccccccsccsccccccccc"
         style="fill:#4c1c2b;fill-opacity:1;stroke:none;stroke-width:0.0776161" /><path
         id="path4-3-1-1"
         d="m 586.0805,631.54636 c 0.3104,-0.23284 225.0572,-13.96463 229.6366,-16.6036 l 3.6485,-2.0954 3.337,1.94078 c 8.3825,4.8122 21.1887,6.05391 31.2789,2.94928 10.2451,-3.10466 17.7747,-9.31366 22.8197,-18.70518 4.3466,-8.22729 4.7343,-11.17697 4.7343,-37.48882 0,-27.63129 -0.3883,-29.57218 -6.9081,-36.55763 -3.4151,-3.72558 -9.8564,-7.52778 -12.7282,-7.52778 -1.1643,0 -1.32,-1.08739 -1.32,-12.03126 0,-9.77962 0.233,-12.03012 1.0869,-12.03012 0.6209,0 5.2003,0.69816 10.1677,1.55194 8.1497,1.39711 12.6518,1.55309 44.164,1.55309 h 35.1592 l 3.4153,-1.78616 c 8.2274,-4.34651 9.4691,-16.45424 2.3285,-22.50829 -4.3464,-3.64796 -6.2097,-3.80349 -45.328,-3.41541 -34.2287,0.23286 -37.1,0.38846 -43.2316,1.94077 -3.6481,0.9314 -6.9857,1.70771 -7.5291,1.70771 -0.5432,0 -1.3964,-1.39746 -1.8622,-3.10503 -4.0359,-13.27232 -22.3539,-16.99807 -31.9007,-6.36466 -1.5524,1.70755 -3.2598,4.5798 -3.8031,6.28736 -1.0866,3.72558 -1.0874,3.72549 -10.0131,1.47462 -6.2093,-1.55231 -9.0803,-1.63031 -45.327,-1.94077 -28.3298,-0.23284 -39.6623,-0.0775 -42.0685,0.54345 -9.7795,2.7942 -13.0392,16.14395 -5.5881,23.05177 4.3465,4.11365 4.7346,4.11464 44.2412,4.11464 34.9272,0 37.2561,-0.0786 47.0358,-1.78616 5.5884,-1.00901 10.3999,-1.62985 10.6328,-1.47462 0.2329,0.23285 0.3878,5.74375 0.3878,12.18587 v 11.71974 l -4.191,1.32001 c -5.2778,1.70754 -11.4874,7.06314 -14.2038,12.49626 -1.7077,3.25989 -2.1727,5.35513 -2.4833,12.03012 l -0.4661,8.07237 -18.6278,7.14122 c -38.1533,1.14125 -69.2443,4.82128 -111.9398,-12.04544 -21.865,21.58203 -22.9007,22.12724 -40.0352,54.37179 z"
         sodipodi:nodetypes="ccccccscssscscccccscccccccsccsccccccccc"
         style="fill:#4c1c2b;fill-opacity:1;stroke:none;stroke-width:0.0776161" /></g><path
       style="fill:#312047;fill-opacity:1;fill-rule:evenodd;stroke:none;stroke-width:0;stroke-linecap:round;stroke-linejoin:round"
       d="m 492.83723,592.90642 c -20.6572,-4.46227 -40.472,-15.72775 -55.1492,-31.35431 -33.3867,-35.54644 -37.3741,-89.40906 -9.52,-128.59772 14.5501,-20.47096 35.7754,-34.98799 60.5421,-41.40782 8.8234,-2.28714 12.2581,-2.54045 27.4661,-2.02562 14.6512,0.49599 18.8505,1.08681 26.732,3.76113 35.9759,12.20713 61.0965,38.87615 70.4248,74.76561 3.0027,11.55234 3.2556,31.78294 0.5543,44.34006 -6.5341,30.37434 -27.5795,57.55187 -55.1786,71.25609 -15.2185,7.55673 -23.1228,9.36351 -43.1158,9.85543 -9.8807,0.24313 -20.1207,-0.0237 -22.7557,-0.59285 z m 84.9662,-102.13196 c 6.1687,-8.8071 -2.8282,-31.97272 -18.0231,-46.40633 -11.9484,-11.34988 -23.6099,-16.97661 -38.7296,-18.6872 -6.5385,-0.73975 -7.3076,-0.56682 -10.1583,2.28388 -6.5404,6.54035 -2.6136,12.70465 8.9627,14.06959 18.7476,2.21052 35.8132,17.11151 42.462,37.07604 1.7704,5.31608 4.3444,10.71415 5.72,11.99571 3.3188,3.0919 7.467,2.95101 9.7663,-0.33169 z"
       id="path582" /><path
       style="fill:#cf1b4b;stroke-width:0.739999"
       d="m 821.58063,538.00975 -2.62476,1.29884 -1.43428,2.43297 -1.43425,2.43291 0.21918,20.25843 0.21917,20.25844 1.67886,3.35308 1.67886,3.35322 3.61784,3.56882 3.61782,3.56877 4.19993,1.89604 4.19993,1.8959 5.61891,0.33275 5.6189,0.33275 4.11923,-1.26243 4.11922,-1.26243 3.90628,-3.62337 3.90629,-3.62318 1.89621,-3.55414 1.8962,-3.55408 0.21917,-20.96932 0.21917,-20.96925 -1.37473,-2.48785 -1.37474,-2.48785 -2.69632,-1.24283 -2.69632,-1.24277 h -17.34549 -17.34549 l -2.62479,1.29878 z"
       id="path3928"
       sodipodi:nodetypes="cccccccccccccccccccccccccccccc" /><path
       style="fill:#cf1b4b;stroke-width:0.739999"
       d="m 160.8985,538.00975 -2.62476,1.29884 -1.43428,2.43297 -1.43425,2.43291 0.21918,20.25843 0.21917,20.25844 1.67886,3.35308 1.67886,3.35322 3.61784,3.56882 3.61782,3.56877 4.19993,1.89604 4.19993,1.8959 5.61891,0.33275 5.6189,0.33275 4.11923,-1.26243 4.11922,-1.26243 3.90628,-3.62337 3.90629,-3.62318 1.89621,-3.55414 1.8962,-3.55408 0.21917,-20.96932 0.21917,-20.96925 -1.37473,-2.48785 -1.37474,-2.48785 -2.69632,-1.24283 -2.69632,-1.24277 h -17.34549 -17.34549 l -2.62479,1.29878 z"
       id="path3928-2"
       sodipodi:nodetypes="cccccccccccccccccccccccccccccc" /><path
       d="m 347.00241,432.93452 -0.93385,-0.88969 -13.50745,-7.94732 -13.50744,-7.94731 -20.01104,-11.7789 -20.01102,-11.77901 -0.78004,-0.70865 -0.78016,-0.70879 3.49405,-5.80228 3.49393,-5.80226 1.73083,-5.12416 1.73095,-5.12402 0.0574,-9.24937 0.0574,-9.24923 h 0.50788 0.50801 l 31.00936,10.59984 31.0095,10.59998 13.2381,4.51729 13.2381,4.5173 -4.43138,5.64417 -4.43137,5.64431 -4.88857,8.13781 -4.88842,8.13782 -5.28892,12.37349 -5.28891,12.37349 -0.19692,0.23346 -0.19677,0.23346 -0.93385,-0.88983 z m 328.55691,-3.23565 -1.15283,-3.34531 -6.88629,-13.78894 -6.88638,-13.78893 -6.4183,-8.50988 -6.41831,-8.51003 2.7203,-1.06392 2.72039,-1.06392 18.00991,-6.31348 18.00992,-6.31361 22.51244,-8.09326 22.51244,-8.09327 1.25761,-9.1e-4 1.25761,-9.1e-4 -0.62831,6.76186 -0.62848,6.76186 1.23961,5.99517 1.23961,5.99517 2.89158,5.50304 2.89158,5.50303 1.20746,1.70294 1.20745,1.70307 -0.46487,0.39075 -0.46479,0.39088 -17.00937,10.32581 -17.00936,10.3257 -14.00771,8.4592 -14.00781,8.45906 -3.27122,1.97749 -3.27114,1.97736 -1.15274,-3.34532 z m 108.2506,-39.89798 -8.50472,-0.52937 -5.38232,-2.95175 -5.38212,-2.9519 -3.31489,-4.34133 -3.31489,-4.34132 -1.60173,-4.82239 -1.60181,-4.8224 0.29341,-29.61058 0.29333,-29.61046 3.2693,-3.26968 3.26922,-3.26953 24.74621,-0.26174 24.74612,-0.26175 2.40496,1.2623 2.40495,1.26229 1.93342,2.60504 1.9335,2.60517 0.37545,28.9122 0.37535,28.91234 -1.47064,5.18633 -1.47054,5.18646 -3.2778,4.29744 -3.27771,4.2973 -4.53623,2.80448 -4.53615,2.80461 -4.93451,0.7188 -4.93452,0.71892 z m -564.11236,-2.56048 -5.19682,-2.5897 -3.49628,-4.08464 -3.4963,-4.08466 -2.00912,-5.3699 -2.0091,-5.36976 v -28.91207 -28.91327 l 0.9756,-2.56608 0.97562,-2.56608 3.27673,-1.99777 3.27674,-1.99791 h 24.01325 24.01324 l 3.31196,2.01925 3.31209,2.01938 1.21974,3.22978 1.21988,3.22991 -0.10673,29.51628 -0.10673,29.51627 -2.58743,5.00276 -2.58755,5.00276 -3.83852,3.69737 -3.83851,3.69723 -4.50249,2.03393 -4.50248,2.03392 -11.0597,0.0214 -11.05983,0.0214 -5.19673,-2.58969 z m 9.98631,-135.38171 0.32071,-27.91219 1.90597,-2.1044 1.90612,-2.10443 h 2.19121 2.19121 l 1.52751,1.75097 1.52751,1.75097 0.5531,28.26556 0.5531,28.26557 h -6.49864 -6.49865 z m 552.79199,27.24502 -0.66704,-0.66704 0.0146,-26.59799 0.0146,-26.59797 1.25871,-2.50138 1.25879,-2.50138 3.13284,-0.30635 3.13292,-0.30637 1.59688,2.27994 1.59697,2.27997 v 27.79281 27.79279 h -5.33627 -5.33627 l -0.66704,-0.66703 z"
       style="fill:#cf1b4b;stroke-width:1.00055"
       id="path6382" /><path
       d="m 176.02895,475.16098 -2.5149,1.55104 -0.22417,20.18908 -0.2242,20.18908 h 7.81513 7.8151 v -20.26623 -20.26617 l -2.64032,-1.47389 -2.64032,-1.47396 h -2.43571 -2.43572 z"
       style="fill:#cf1b4b;stroke-width:0.986356"
       id="path6507" /><path
       d="m 836.71108,475.97328 -2.5149,1.55104 -0.22417,20.18908 -0.2242,20.18908 h 7.81513 7.8151 v -20.26623 -20.26617 l -2.64032,-1.47389 -2.64032,-1.47396 h -2.43571 -2.43572 z"
       style="fill:#cf1b4b;stroke-width:0.986356"
       id="path6507-2" /><path
       style="opacity:1;fill:#cf1b4b;fill-opacity:1;fill-rule:evenodd;stroke-width:0;stroke-linecap:round;stroke-linejoin:round"
       d="m 213.03392,601.49559 4.94035,-11.04881 3.59298,-11.9766 1.49707,-11.07837 22.9526,5.46111 h 60.97494 l 44.66756,-11.6538 12.95674,24.87281 8.47949,10.76263 14.1264,15.10464 z"
       id="path6608"
       sodipodi:nodetypes="ccccccccccc" /><path
       style="fill:#cf1b4b;fill-opacity:1;fill-rule:evenodd;stroke-width:0;stroke-linecap:round;stroke-linejoin:round"
       d="m 809.4098,602.99559 -4.94035,-11.04881 -3.59298,-11.9766 -1.49707,-11.07837 -22.9526,5.46111 h -60.97494 l -44.66756,-11.6538 -12.95674,24.87281 -8.47949,10.76263 -14.1264,15.10464 z"
       id="path6608-5"
       sodipodi:nodetypes="ccccccccccc" /></g></svg>
