<?xml version="1.0" encoding="UTF-8" standalone="no"?>
<!-- Created with Inkscape (http://www.inkscape.org/) -->

<svg
   width="17.802307mm"
   height="24.056549mm"
   viewBox="0 0 17.802307 24.056549"
   version="1.1"
   id="svg5"
   xml:space="preserve"
   inkscape:version="1.2.2 (732a01da63, 2022-12-09)"
   sodipodi:docname="drone_azimuth.svg"
   xmlns:inkscape="http://www.inkscape.org/namespaces/inkscape"
   xmlns:sodipodi="http://sodipodi.sourceforge.net/DTD/sodipodi-0.dtd"
   xmlns="http://www.w3.org/2000/svg"
   xmlns:svg="http://www.w3.org/2000/svg"><sodipodi:namedview
     id="namedview7"
     pagecolor="#ffffff"
     bordercolor="#999999"
     borderopacity="1"
     inkscape:showpageshadow="0"
     inkscape:pageopacity="0"
     inkscape:pagecheckerboard="0"
     inkscape:deskcolor="#d1d1d1"
     inkscape:document-units="mm"
     showgrid="false"
     inkscape:zoom="5.6568544"
     inkscape:cx="56.214988"
     inkscape:cy="47.55293"
     inkscape:window-width="1920"
     inkscape:window-height="1009"
     inkscape:window-x="1912"
     inkscape:window-y="-8"
     inkscape:window-maximized="1"
     inkscape:current-layer="layer1" /><defs
     id="defs2"><filter
       inkscape:collect="always"
       style="color-interpolation-filters:sRGB"
       id="filter17674"
       x="-0.053769814"
       y="-0.053769814"
       width="1.1075396"
       height="1.1075396"><feGaussianBlur
         inkscape:collect="always"
         stdDeviation="0.11647061"
         id="feGaussianBlur17676" /></filter><filter
       inkscape:collect="always"
       style="color-interpolation-filters:sRGB"
       id="filter23444"
       x="-0.0098899665"
       y="-0.0085936327"
       width="1.0197799"
       height="1.0171873"><feGaussianBlur
         inkscape:collect="always"
         stdDeviation="0.029927862"
         id="feGaussianBlur23446" /></filter><filter
       inkscape:collect="always"
       style="color-interpolation-filters:sRGB"
       id="filter914"
       x="-0.012020626"
       y="-0.010377802"
       width="1.0240413"
       height="1.0207556"><feGaussianBlur
         inkscape:collect="always"
         stdDeviation="0.089164305"
         id="feGaussianBlur916" /></filter></defs><g
     inkscape:label="Camada 1"
     inkscape:groupmode="layer"
     id="layer1"
     transform="translate(-99.428628,-129.04538)"><path
       style="fill:#666666;fill-rule:evenodd;stroke-width:0;stroke-linecap:round;stroke-linejoin:round;filter:url(#filter914);stroke:#333333"
       d="m 99.428628,149.66579 8.575872,-20.62041 9.22643,20.50157 -6.61047,-1.07287 -5.29713,0.0502 -5.894702,1.14147"
       id="path303" /><g
       id="g23459"
       transform="rotate(-0.54341375,107.85184,141.05791)"><path
         style="fill:#ca0f47;fill-opacity:1;fill-rule:evenodd;stroke:#ececec;stroke-width:0;stroke-linecap:round;stroke-linejoin:round;stroke-dasharray:none"
         d="M 99.347368,149.58552 108.11842,129.04737 105.25263,148.5 Z"
         id="path910" /><path
         style="fill:#95062e;fill-opacity:1;fill-rule:evenodd;stroke:#ececec;stroke-width:0;stroke-linecap:round;stroke-linejoin:round;stroke-dasharray:none"
         d="m 105.25263,148.5 2.61581,4.60263 L 110.55,148.5 108.11842,129.04737 117.15,149.63552 110.55,148.5 108.11842,129.04737"
         id="path912" /><path
         style="fill:#ea366b;fill-opacity:1;fill-rule:evenodd;stroke:#ececec;stroke-width:0;stroke-linecap:round;stroke-linejoin:round;stroke-dasharray:none"
         d="m 110.55,148.5 -2.43158,-19.45263 9.03158,20.58815 z"
         id="path4106" /><circle
         style="opacity:0.52862;mix-blend-mode:normal;fill:#000000;fill-opacity:1;fill-rule:evenodd;stroke:#000000;stroke-width:0.4;stroke-linecap:round;stroke-linejoin:round;stroke-dasharray:none;stroke-opacity:1;filter:url(#filter17674)"
         id="path966-9"
         cx="108.11842"
         cy="141.075"
         r="4.4590955" /><circle
         style="fill:#e9e1d7;fill-opacity:1;fill-rule:evenodd;stroke:#e9e1d7;stroke-width:0.105459;stroke-linecap:round;stroke-linejoin:round;stroke-opacity:1"
         id="path966"
         cx="108.11842"
         cy="141.075"
         r="4.4590955" /><path
         id="path966-98"
         style="opacity:0.885522;fill:#b3b3b3;fill-opacity:1;fill-rule:evenodd;stroke:none;stroke-width:0.105459;stroke-linecap:round;stroke-linejoin:round;stroke-opacity:1;filter:url(#filter23444)"
         d="m 105.95945,137.17601 a 4.4590955,4.4590955 0 0 0 -2.30012,3.89899 4.4590955,4.4590955 0 0 0 4.45916,4.45916 4.4590955,4.4590955 0 0 0 2.80344,-0.99322 4.4590955,4.4590955 0 0 1 -2.15955,0.56069 4.4590955,4.4590955 0 0 1 -4.45916,-4.45916 4.4590955,4.4590955 0 0 1 1.65623,-3.46646 z" /><g
         id="g15019"
         transform="translate(-19.517776,8.4237817)"><ellipse
           style="fill:#2a1e4a;fill-opacity:1;fill-rule:evenodd;stroke:#ececec;stroke-width:0;stroke-linecap:round;stroke-linejoin:round;stroke-dasharray:none"
           id="path12489"
           cx="127.6362"
           cy="130.34276"
           rx="2.7572367"
           ry="1.7295943" /><path
           style="fill:#999999;fill-opacity:1;fill-rule:evenodd;stroke:#ff0000;stroke-width:0;stroke-linecap:round;stroke-linejoin:round;stroke-dasharray:none"
           id="path14917"
           d="m 126.42928,130.08532 c 0.0418,-0.0832 0.0968,-0.16461 0.1676,-0.24149 0.0687,-0.0641 0.15199,-0.12344 0.24451,-0.17738 0.0872,-0.0515 0.19605,-0.0902 0.31306,-0.11694 0.12415,-0.0175 0.23861,-0.0492 0.35293,-0.0803 0.0894,-0.0232 0.1872,-0.0262 0.28402,-0.028 0.10295,-0.002 0.20597,-5.3e-4 0.30895,-3.6e-4 0.13201,-0.002 0.26031,-0.004 0.38803,0.0165 0.13366,0.0142 0.25624,0.0454 0.38157,0.0733 0.35576,0.0671 0.35908,0.0601 1.02625,0.22181 v 0 c -0.0587,-0.0392 -0.0272,-0.0207 -0.0946,-0.0554 -0.38312,-0.18935 0.0801,-0.0826 -1.06481,-0.41451 -0.087,-0.021 -0.41506,-0.0689 -0.49511,-0.0978 -0.1027,-0.0248 -0.20559,-0.0467 -0.31154,-0.0667 -0.12654,-0.0281 -0.25782,-0.0482 -0.39162,-0.0624 -0.13518,-0.009 -0.27086,-0.007 -0.40689,-0.008 -0.105,-5e-5 -0.21018,-5.4e-4 -0.31487,0.005 -0.10779,0.007 -0.21279,0.0201 -0.30871,0.0497 -0.11312,0.0319 -0.23279,0.0535 -0.35015,0.0797 -0.12402,0.0365 -0.24252,0.0802 -0.33789,0.13827 -0.097,0.0596 -0.18407,0.12511 -0.25789,0.19437 -0.0737,0.0808 -0.1257,0.16659 -0.18593,0.25069 l 1.05304,0.3206 z"
           sodipodi:nodetypes="ccccccccccscccccccccccccc" /></g><path
         style="opacity:1;fill:#760a2a;fill-opacity:1;fill-rule:evenodd;stroke:#000000;stroke-width:0;stroke-linecap:round;stroke-linejoin:round;stroke-dasharray:none;stroke-opacity:1"
         d="m 105.25263,148.5 2.86579,-6.41875 -0.24998,11.02138 z"
         id="path17784"
         sodipodi:nodetypes="cccc" /><path
         style="opacity:1;fill:#a4143c;fill-opacity:1;fill-rule:evenodd;stroke:#000000;stroke-width:0;stroke-linecap:round;stroke-linejoin:round;stroke-dasharray:none;stroke-opacity:1"
         d="M 108.11842,142.08125 110.55,148.5 l -2.68156,4.60263 z"
         id="path20765" /></g></g></svg>
