<?xml version="1.0" encoding="UTF-8" standalone="no"?>
<svg
   xmlns:dc="http://purl.org/dc/elements/1.1/"
   xmlns:cc="http://creativecommons.org/ns#"
   xmlns:rdf="http://www.w3.org/1999/02/22-rdf-syntax-ns#"
   xmlns:svg="http://www.w3.org/2000/svg"
   xmlns="http://www.w3.org/2000/svg"
   xmlns:sodipodi="http://sodipodi.sourceforge.net/DTD/sodipodi-0.dtd"
   xmlns:inkscape="http://www.inkscape.org/namespaces/inkscape"
   id="svg8"
   version="1.1"
   viewBox="0 0 76.099358 76.053307"
   height="76.053307mm"
   width="76.099358mm"
   sodipodi:docname="multidirectional.svg"
   inkscape:version="0.92.4 (5da689c313, 2019-01-14)">
  <sodipodi:namedview
     pagecolor="#ffffff"
     bordercolor="#666666"
     borderopacity="1"
     objecttolerance="10"
     gridtolerance="10"
     guidetolerance="10"
     inkscape:pageopacity="0"
     inkscape:pageshadow="2"
     inkscape:window-width="1920"
     inkscape:window-height="1001"
     id="namedview72"
     showgrid="false"
     inkscape:zoom="1.6711038"
     inkscape:cx="-132.49101"
     inkscape:cy="176.73274"
     inkscape:window-x="-9"
     inkscape:window-y="-9"
     inkscape:window-maximized="1"
     inkscape:current-layer="svg8" />
  <defs
     id="defs2" />
  <metadata
     id="metadata5">
    <rdf:RDF>
      <cc:Work
         rdf:about="">
        <dc:format>image/svg+xml</dc:format>
        <dc:type
           rdf:resource="http://purl.org/dc/dcmitype/StillImage" />
        <dc:title />
      </cc:Work>
    </rdf:RDF>
  </metadata>
  <g
     transform="matrix(0.93377279,0,0,0.93377279,-33.244985,-112.94982)"
     id="layer1">
    <path
       id="path15"
       d="m 73.676574,199.58772 c -2.446595,-0.46471 -5.130978,-1.74572 -7.441917,-3.55133 -1.004891,-0.78516 -2.909198,-2.688 -3.771809,-3.76891 -1.965203,-2.46253 -3.999023,-6.00556 -5.378762,-9.3701 -0.218625,-0.53313 -0.463283,-1.07175 -0.543681,-1.19693 -0.08721,-0.13579 -0.602232,-0.41089 -1.276705,-0.68196 -2.572747,-1.034 -5.162741,-2.42247 -7.674145,-4.11402 -3.020917,-2.03473 -5.656976,-4.7827 -7.196013,-7.50152 -1.63214,-2.88328 -2.206654,-5.2469 -2.073529,-8.5307 0.103913,-2.56318 0.819169,-4.81411 2.310091,-7.26992 2.707015,-4.45891 7.303161,-8.03309 14.125842,-10.98493 l 1.768679,-0.76522 0.556204,-1.34098 c 1.157282,-2.79014 2.125462,-4.64843 3.572553,-6.85704 3.491738,-5.32923 8.022477,-8.78165 12.851183,-9.7926 1.279512,-0.26788 4.317498,-0.2726 5.62015,-0.009 1.438889,0.29147 2.490909,0.66464 4.019211,1.42569 1.588855,0.7912 2.824216,1.6436 4.492046,3.09949 1.11112,0.96993 1.223303,1.03759 3.069516,1.85121 2.884932,1.27137 5.004366,2.29723 5.278834,2.55508 0.321217,0.30177 0.309877,0.43526 -0.07413,0.87262 -0.231624,0.2638 -0.662165,0.50584 -1.564463,0.87948 -1.125447,0.46604 -1.238072,0.5374 -1.17384,0.74372 0.03908,0.12552 0.444942,0.97944 0.901923,1.8976 0.456977,0.91817 1.086503,2.27522 1.398942,3.01567 0.312441,0.74045 0.671166,1.44947 0.797168,1.5756 0.126005,0.12612 0.883391,0.50536 1.683081,0.84274 1.653712,0.6977 4.572567,2.18843 5.862117,2.99392 2.08823,1.30438 4.40624,3.22242 5.88956,4.87332 2.02068,2.24897 3.20469,4.26125 4.08298,6.93928 0.39498,1.20436 0.45152,1.51529 0.56315,3.09725 0.24353,3.45121 -0.38933,6.11092 -2.16536,9.1004 l -0.73391,1.23533 -0.18561,2.09194 c -0.26954,3.0379 -0.48576,4.83273 -0.61022,5.06528 -0.079,0.14769 -0.22743,0.20388 -0.53842,0.20388 -0.37412,0 -0.50218,-0.0727 -0.99612,-0.56544 -0.31175,-0.31099 -0.88688,-0.92894 -1.27806,-1.37321 l -0.71124,-0.80777 -0.46982,0.35266 c -0.97056,0.72853 -3.52589,2.38477 -4.61,2.98799 -1.31653,0.73254 -3.5676,1.80975 -4.817007,2.30508 -0.483733,0.19178 -0.947693,0.42969 -1.031021,0.5287 -0.08333,0.099 -0.388691,0.76161 -0.678582,1.47244 -2.014199,4.93901 -4.972243,9.32416 -8.215725,12.1794 -2.471502,2.17567 -5.465511,3.75229 -7.971764,4.19787 -1.374738,0.2444 -4.596249,0.29999 -5.661376,0.0977 z m 4.876239,-3.76529 c 3.764248,-0.80306 7.392191,-3.62575 10.313842,-8.0246 1.063688,-1.60149 2.6329,-4.5507 2.494809,-4.68879 -0.03635,-0.0363 -0.761214,0.0824 -1.610807,0.26393 -3.967549,0.84765 -6.428299,1.17057 -9.999356,1.31223 -6.557716,0.26013 -11.695943,-0.14063 -16.886505,-1.31706 -0.787168,-0.17841 -1.483567,-0.30694 -1.547554,-0.28561 -0.129945,0.0433 0.868262,2.02445 1.860307,3.69213 1.501061,2.52337 4.110403,5.4655 6.096779,6.87436 1.675148,1.18811 3.828235,2.08009 5.625541,2.33054 0.880253,0.12266 2.710455,0.0439 3.652944,-0.15713 z m 0.33687,-14.81001 c 3.249813,-0.16237 5.971468,-0.49172 8.993148,-1.08827 1.94325,-0.38365 4.751366,-1.12678 5.093742,-1.348 0.291605,-0.18842 0.368737,-0.37468 0.777595,-1.87781 2.635726,-9.69003 2.581449,-21.17209 -0.144206,-30.50615 -0.20415,-0.69911 -0.396275,-1.2962 -0.426943,-1.32687 -0.110677,-0.11068 -2.128615,-0.6757 -3.750878,-1.05024 -3.632264,-0.8386 -6.528906,-1.21879 -10.473288,-1.37465 -6.370789,-0.25174 -11.190317,0.22821 -17.026216,1.69552 -2.16453,0.54423 -2.357059,0.64348 -2.619643,1.35042 -0.517826,1.39413 -1.401738,5.41815 -1.794573,8.16982 -0.374158,2.62086 -0.429263,3.66842 -0.433406,8.23923 -0.0045,4.95799 0.03813,5.56349 0.652042,9.2624 0.474527,2.85912 1.381971,6.6119 1.727528,7.14428 0.21114,0.32529 0.576032,0.47153 2.318925,0.92938 3.716393,0.97628 7.882173,1.59518 11.934153,1.77302 2.777705,0.12191 2.887382,0.12208 5.17202,0.008 z M 54.97962,176.62371 c -7.7e-5,-0.10366 -0.117356,-0.67314 -0.26062,-1.2655 -0.577967,-2.38975 -0.991738,-5.07642 -1.268924,-8.23923 -0.182909,-2.08708 -0.180615,-9.41287 0.0035,-11.20104 0.277593,-2.69595 0.931608,-6.65511 1.472242,-8.91237 0.09469,-0.39536 -0.258789,-0.30468 -1.697789,0.43551 -5.695614,2.92972 -9.548273,6.92942 -10.7848,11.19642 -0.995778,3.43623 -0.280112,7.00773 2.065901,10.3098 0.993695,1.39865 3.24975,3.53159 5.139357,4.8589 1.269426,0.89168 4.948663,2.99673 5.250492,3.00404 0.04443,0.001 0.08071,-0.0829 0.08064,-0.18653 z m 45.18128,-1.02865 c 1.93351,-1.04677 4.36211,-2.72682 4.36181,-3.01739 -7e-5,-0.0701 -0.29357,-0.48644 -0.65222,-0.92523 -0.83313,-1.01931 -0.98266,-1.31659 -0.94215,-1.87308 0.0263,-0.36175 0.0877,-0.47706 0.31054,-0.58333 0.15275,-0.0729 1.3141,-0.23453 2.58078,-0.35928 1.26668,-0.12474 2.38773,-0.27213 2.49123,-0.32752 0.715,-0.38265 1.98541,-3.24406 2.25309,-5.07471 0.17474,-1.19511 0.067,-3.45136 -0.2153,-4.50757 -1.00365,-3.75542 -4.21243,-7.54428 -8.67995,-10.24911 -1.46414,-0.88645 -3.795958,-2.08568 -3.88409,-1.99755 -0.04287,0.0429 0.09761,0.93934 0.312166,1.99216 1.066702,5.23423 1.170537,6.26221 1.226865,12.14594 0.06187,6.4627 -0.106688,8.43112 -1.164937,13.60394 -0.471371,2.30411 -0.451607,2.1992 -0.433893,2.30313 0.01741,0.10208 1.012071,-0.35948 2.436059,-1.1304 z M 62.655574,140.08747 c 4.558769,-1.08947 10.14666,-1.61335 15.587896,-1.46141 2.956629,0.0826 5.194099,0.27742 7.593015,0.66124 1.610447,0.25766 5.02358,0.94381 5.385287,1.08261 0.105494,0.0405 0.161385,-0.003 0.161385,-0.12657 0,-0.2191 -1.458534,-3.05027 -1.77709,-3.44951 l -0.215402,-0.26997 -1.184355,0.44726 c -1.481039,0.55929 -2.246238,0.65055 -2.666005,0.31795 -0.162901,-0.12908 -0.296183,-0.3204 -0.296183,-0.42518 0,-0.10477 0.218067,-1.08269 0.484595,-2.17315 0.266528,-1.09047 0.507738,-2.07959 0.536028,-2.19807 0.115398,-0.48332 -2.948083,-2.98455 -4.730166,-3.86203 -1.924129,-0.94741 -3.714218,-1.3244 -5.822116,-1.22613 -4.974103,0.23191 -9.574673,3.88046 -13.274014,10.52713 -0.642808,1.15494 -1.211953,2.29938 -1.211953,2.437 0,0.0608 -0.0093,0.0626 1.429078,-0.28117 z"
       fill="param(fill)" fill-opacity="param(fill-opacity)" stroke="param(outline)" stroke-opacity="param(outline-opacity)" stroke-width="param(outline-width)" />
  </g>
</svg>
