<?xml version="1.0" encoding="UTF-8" standalone="no"?>
<svg
   xmlns:dc="http://purl.org/dc/elements/1.1/"
   xmlns:cc="http://creativecommons.org/ns#"
   xmlns:rdf="http://www.w3.org/1999/02/22-rdf-syntax-ns#"
   xmlns:svg="http://www.w3.org/2000/svg"
   xmlns="http://www.w3.org/2000/svg"
   xmlns:sodipodi="http://sodipodi.sourceforge.net/DTD/sodipodi-0.dtd"
   xmlns:inkscape="http://www.inkscape.org/namespaces/inkscape"
   id="svg8"
   version="1.1"
   viewBox="0 0 76.099358 76.053307"
   height="76.053307mm"
   width="76.099358mm"
   sodipodi:docname="multidirectional.svg"
   inkscape:version="0.92.4 (5da689c313, 2019-01-14)">
  <sodipodi:namedview
     pagecolor="#ffffff"
     bordercolor="#666666"
     borderopacity="1"
     objecttolerance="10"
     gridtolerance="10"
     guidetolerance="10"
     inkscape:pageopacity="0"
     inkscape:pageshadow="2"
     inkscape:window-width="1920"
     inkscape:window-height="1001"
     id="namedview72"
     showgrid="false"
     inkscape:zoom="1.5928242"
     inkscape:cx="113.88055"
     inkscape:cy="244.93788"
     inkscape:window-x="-9"
     inkscape:window-y="-9"
     inkscape:window-maximized="1"
     inkscape:current-layer="svg8" />
  <defs
     id="defs2" />
  <metadata
     id="metadata5">
    <rdf:RDF>
      <cc:Work
         rdf:about="">
        <dc:format>image/svg+xml</dc:format>
        <dc:type
           rdf:resource="http://purl.org/dc/dcmitype/StillImage" />
        <dc:title />
      </cc:Work>
    </rdf:RDF>
  </metadata>
  <path
     style="opacity:1;fill:#000000;fill-opacity:1;stroke:#000000;stroke-width:0.31390783;stroke-linecap:round;stroke-linejoin:round;stroke-miterlimit:4;stroke-dasharray:none;stroke-dashoffset:0;stroke-opacity:1"
     d="M 35.559808,73.301465 C 34.14739,73.049311 31.847987,72.1084 30.270866,71.137244 28.213006,69.870057 25.353256,66.995801 23.755962,64.589293 22.607405,62.858863 20.738058,59.32517 19.949998,57.394743 19.612559,56.568158 19.523816,56.484455 18.546674,56.071117 10.274421,52.571923 4.8980471,47.641979 3.1090181,41.915337 c -0.340068,-1.088551 -0.3892,-1.581333 -0.3892,-3.903575 0,-2.32224 0.04913,-2.815024 0.3892,-3.903575 1.233526,-3.948489 4.232464,-7.62263 8.5576709,-10.484411 1.831262,-1.211657 5.137323,-2.948078 7.105162,-3.731798 0.761707,-0.303361 0.779313,-0.328057 1.643832,-2.305826 3.35239,-7.6692936 7.830327,-12.4636186 13.449677,-14.3999606 1.519746,-0.52368 1.673157,-0.543678 4.152742,-0.541336 2.301161,0.0022 2.698229,0.04565 3.737464,0.409274 1.089377,0.381164 1.166035,0.440706 1.21457,0.943362 0.03717,0.384924 -0.09249,0.746237 -0.458859,1.27874 -0.482721,0.701614 -0.558257,0.744963 -1.380678,0.792357 -0.478509,0.02757 -1.243766,-0.01403 -1.700567,-0.09245 -0.922824,-0.158429 -2.823025,-0.04404 -4.029789,0.242589 -1.294821,0.307542 -3.422375,1.411242 -4.742302,2.460139 -2.0677,1.6431266 -3.969406,4.0380376 -5.746224,7.2365016 -1.155539,2.080097 -1.219485,2.331942 -0.556128,2.190271 4.900214,-1.046529 7.480195,-1.382806 11.835306,-1.542627 4.676111,-0.1716 9.550355,0.266962 14.226082,1.279996 0.871728,0.188868 1.629588,0.29877 1.684131,0.244227 0.124709,-0.124709 -1.066435,-2.585639 -1.537377,-3.176256 l -0.350782,-0.439924 -1.371875,0.433376 c -1.776862,0.561311 -2.826039,0.57375 -3.32798,0.03946 l -0.370064,-0.393918 0.657905,-2.554527 c 0.389268,-1.511456 0.699486,-3.1606816 0.75974,-4.0390266 0.05601,-0.816474 0.126317,-1.508982 0.156242,-1.538906 0.0629,-0.0629 5.860825,1.989826 7.829087,2.771852 1.632439,0.648598 1.942171,0.9065496 1.87679,1.5630346 -0.0438,0.439769 -0.163819,0.542033 -1.027882,0.875783 -1.068782,0.412825 -1.532949,0.756377 -1.689852,1.250737 -0.06688,0.210718 0.393396,1.388768 1.338474,3.425749 l 1.440408,3.10459 3.432934,1.700899 c 3.739254,1.852669 5.576494,3.064069 7.865338,5.18607 3.028056,2.807335 5.249752,6.667225 5.563092,9.665108 0.139285,1.332592 -0.130376,1.635154 -1.457335,1.635154 -1.281565,0 -1.70424,-0.376253 -1.959356,-1.744149 -0.594702,-3.188722 -3.45879,-6.889303 -7.326297,-9.466037 -1.706354,-1.13686 -4.409551,-2.541574 -4.574167,-2.376959 -0.05593,0.05593 0.124666,1.285868 0.40132,2.733203 0.844677,4.418976 0.911561,5.245315 0.918866,11.352271 0.0073,6.085576 -0.0208,6.424602 -0.918411,11.094763 -0.286083,1.488426 -0.476544,2.749833 -0.423249,2.803128 0.329004,0.329004 6.422846,-3.232746 6.422846,-3.754049 0,-0.07599 -0.372261,-0.614145 -0.827249,-1.195901 -0.454986,-0.581755 -0.828734,-1.209807 -0.830549,-1.395669 -0.0052,-0.534397 0.851099,-0.912627 3.045995,-1.345398 1.109377,-0.218739 2.689791,-0.65354 3.512034,-0.966224 0.855755,-0.325432 1.557973,-0.506487 1.64229,-0.423442 0.08249,0.08124 0.104545,1.629728 0.05012,3.519297 -0.09617,3.339261 -0.332616,5.123149 -0.839975,6.337433 -0.389591,0.932418 -0.783085,0.815226 -2.141107,-0.637678 -0.640453,-0.685202 -1.215249,-1.245822 -1.277321,-1.245822 -0.06207,0 -1.079854,0.646157 -2.261735,1.435907 -1.967785,1.314902 -5.038929,2.958295 -7.143787,3.822697 l -0.842171,0.345855 -0.956212,2.163782 c -3.349488,7.579445 -8.333675,12.737957 -13.84933,14.333728 -1.243076,0.359643 -4.861017,0.544484 -6.150718,0.314241 z m 5.613252,-3.649348 c 0.593225,-0.199747 1.378093,-0.515438 1.744152,-0.701538 2.290622,-1.164523 4.867838,-3.593957 6.662044,-6.280028 1.204632,-1.803432 2.697512,-4.558602 2.549993,-4.70612 -0.04664,-0.04664 -1.016939,0.09916 -2.156216,0.324 -3.444743,0.679837 -5.174425,0.896901 -8.599006,1.079107 -5.178306,0.275515 -10.31371,-0.06937 -15.018534,-1.008635 -1.303441,-0.260218 -2.403972,-0.439039 -2.445626,-0.397386 -0.214127,0.214128 1.776329,3.705038 3.158173,5.538881 2.59851,3.448484 5.519216,5.626473 8.592706,6.40764 1.354667,0.344302 4.109556,0.216402 5.512314,-0.255921 z m 2.575822,-13.781035 c 3.780451,-0.437531 9.00484,-1.542323 9.820405,-2.076702 0.561768,-0.368086 1.584658,-4.56012 2.169001,-8.889071 0.431504,-3.196683 0.430482,-10.970779 -0.0019,-14.036257 -0.366895,-2.601511 -0.969772,-5.497849 -1.524812,-7.325486 l -0.408634,-1.345539 -1.214143,-0.360439 c -8.550202,-2.538274 -20.61304,-2.544915 -29.061686,-0.016 -1.328232,0.397577 -1.411973,0.518865 -2.023298,2.930523 -1.736117,6.848945 -2.083847,15.20184 -0.920423,22.109706 0.423013,2.511658 1.389209,6.444899 1.664734,6.776885 0.611178,0.736425 7.585603,2.096137 12.613838,2.459159 1.489686,0.107548 7.273372,-0.04004 8.886862,-0.22678 z M 18.084953,51.921567 c 0,-0.160909 -0.184488,-1.188712 -0.409973,-2.284008 -0.858571,-4.1705 -0.993472,-5.753431 -0.997859,-11.70885 -0.0044,-5.908331 0.100248,-7.053609 1.104509,-12.093297 0.187573,-0.941297 0.292372,-1.760119 0.232888,-1.819603 -0.156141,-0.156141 -2.74899,1.164548 -4.317786,2.199299 -3.08211,2.032907 -5.3242989,4.402685 -6.5663099,6.939962 -0.876238,1.790041 -1.171468,3.014012 -1.171468,4.856692 0,1.880843 0.296381,3.074635 1.237191,4.983287 1.525025,3.093871 4.2880949,5.64211 8.9899139,8.290938 0.906126,0.510479 1.704066,0.928143 1.773198,0.928143 0.06913,0 0.125696,-0.131652 0.125696,-0.292563 z"
     id="path46"
     inkscape:connector-curvature="0" />
</svg>
