<?xml version="1.0" encoding="UTF-8" standalone="no"?>
<!-- Created with Inkscape (http://www.inkscape.org/) -->

<svg
   width="119.15448mm"
   height="95.484734mm"
   viewBox="0 0 119.15448 95.484734"
   version="1.1"
   id="svg5"
   xml:space="preserve"
   inkscape:version="1.2.2 (732a01da63, 2022-12-09)"
   sodipodi:docname="camera360.svg"
   xmlns:inkscape="http://www.inkscape.org/namespaces/inkscape"
   xmlns:sodipodi="http://sodipodi.sourceforge.net/DTD/sodipodi-0.dtd"
   xmlns="http://www.w3.org/2000/svg"
   xmlns:svg="http://www.w3.org/2000/svg"><sodipodi:namedview
     id="namedview7"
     pagecolor="#ffffff"
     bordercolor="#999999"
     borderopacity="1"
     inkscape:showpageshadow="0"
     inkscape:pageopacity="0"
     inkscape:pagecheckerboard="0"
     inkscape:deskcolor="#d1d1d1"
     inkscape:document-units="mm"
     showgrid="false"
     inkscape:zoom="1.0771772"
     inkscape:cx="74.732366"
     inkscape:cy="99.333704"
     inkscape:window-width="1920"
     inkscape:window-height="1009"
     inkscape:window-x="1912"
     inkscape:window-y="-8"
     inkscape:window-maximized="1"
     inkscape:current-layer="layer1" /><defs
     id="defs2" /><g
     inkscape:label="Camada 1"
     inkscape:groupmode="layer"
     id="layer1"
     transform="translate(-40.21925,-72.606155)"><path
       id="path302"
       d="m 136.40046,72.606421 c -1.82775,0.01916 -3.56744,1.071177 -4.39456,2.775024 -0.93933,1.934965 -0.56405,4.169065 0.95343,5.673039 0.7259,0.719438 1.6625,1.20405 2.68975,1.391646 h 5.2e-4 c 0.10939,0.01995 0.52114,0.0297 0.91519,0.0217 0.55433,-0.0112 0.79321,-0.03521 1.05627,-0.105419 1.9621,-0.523666 3.38,-2.071139 3.70416,-4.043165 0.0952,-0.579693 0.0597,-1.402871 -0.0848,-1.954402 -0.46627,-1.780795 -1.81598,-3.142208 -3.57084,-3.601848 -0.42103,-0.110279 -0.84738,-0.161001 -1.26917,-0.156579 z m 0.0625,2.368848 c 0.71343,0 1.30549,0.247176 1.81798,0.759126 1.14443,1.143221 0.9619,3.046342 -0.37983,3.958932 -0.18696,0.127166 -0.46495,0.269354 -0.62942,0.321944 -0.38398,0.12276 -1.09875,0.152181 -1.46244,0.06046 -0.87591,-0.220915 -1.58907,-0.90252 -1.86087,-1.778702 -0.1221,-0.393536 -0.12926,-1.05138 -0.0155,-1.432988 0.21506,-0.721394 0.69804,-1.306888 1.33377,-1.616955 0.43407,-0.211709 0.69844,-0.271818 1.19631,-0.271817 z m -38.775413,0.02015 c -0.490972,-9.91e-4 -1.029392,0.0059 -1.623673,0.0186 -3.404684,0.07308 -3.978625,0.14654 -4.976441,0.638204 -1.535533,0.756613 -2.858357,2.118986 -3.626135,3.735172 L 86.82051,80.73615 v 9.935828 9.935822 l 0.805636,1.6366 c 0.897224,1.8227 2.079857,2.92035 3.922241,3.6406 1.754793,0.68598 8.323462,0.67691 10.169923,-0.0139 1.6626,-0.62205 3.25365,-2.14627 4.07314,-3.90261 0.59594,-1.27742 0.63933,-1.61158 0.64233,-4.925792 0.004,-4.461816 -0.34254,-5.650234 -2.18746,-7.495149 -1.87828,-1.878278 -3.00938,-2.195464 -7.740096,-2.171444 -2.786884,0.01417 -4.078456,0.121045 -4.842598,0.400492 l -1.042314,0.381372 v -3.347082 c 0,-3.802026 0.275653,-4.678796 1.74408,-5.545915 0.723976,-0.4275 1.270715,-0.490409 4.263305,-0.490409 3.140756,0 3.508953,0.04722 4.326353,0.555522 0.96541,0.60035 1.68155,1.823399 1.68155,2.872176 0,0.403296 0.28561,0.941907 0.74156,1.397847 0.59798,0.597977 0.87164,0.710254 1.41025,0.578776 1.15661,-0.282324 1.57482,-0.908057 1.56372,-2.338875 -0.0135,-1.737875 -0.95117,-3.597173 -2.53007,-5.016748 -1.59109,-1.430529 -2.69771,-1.820855 -6.134513,-1.827796 z m -23.33656,0.0031 c -0.446544,-8.86e-4 -0.932689,0.0064 -1.463993,0.02015 -3.199336,0.08279 -3.57611,0.142265 -4.731494,0.746207 -0.690467,0.360914 -1.550854,1.007377 -1.912028,1.436605 -2.388895,2.839036 -2.31782,6.477318 0.125057,6.407878 1.05677,-0.03005 1.641128,-0.672067 1.90686,-2.094446 0.4309,-2.306506 1.799952,-2.972852 5.792928,-2.819983 4.063062,0.155556 4.783171,0.922018 4.783171,5.094263 0,2.619272 -0.220073,3.392098 -1.225765,4.303613 -0.444009,0.402442 -1.000285,0.512685 -3.116089,0.617533 -2.440356,0.120929 -2.605907,0.163614 -3.162598,0.810804 -0.742516,0.863294 -0.741335,1.429666 0.0041,2.297017 0.561745,0.653596 0.719671,0.69428 3.164665,0.813387 2.107619,0.102678 2.672855,0.213549 3.12074,0.612883 0.923786,0.823641 1.214913,1.89449 1.214913,4.468461 0,4.149749 -0.860151,4.969199 -5.214669,4.969199 -3.849782,0 -5.083314,-0.69358 -5.437911,-3.058205 -0.189795,-1.265627 -0.815951,-1.845882 -1.992126,-1.845882 -1.147829,0 -1.703652,0.758587 -1.681552,2.294427 0.03438,2.38963 1.991235,5.0345 4.367176,5.90197 0.768498,0.28059 1.943655,0.35518 4.931998,0.31368 4.366063,-0.0606 4.826348,-0.19022 6.580477,-1.85519 1.715201,-1.62802 1.977425,-2.4167 2.08101,-6.253361 0.103075,-3.81763 -0.122613,-5.029688 -1.219047,-6.54327 l -0.702283,-0.968933 0.702283,-0.96945 c 1.096434,-1.513581 1.322128,-2.725637 1.219047,-6.54327 -0.106643,-3.949752 -0.393385,-4.746868 -2.315621,-6.438883 -1.487385,-1.309254 -2.693474,-1.711008 -5.819283,-1.717208 z m 45.327463,0.09819 c -4.32287,0 -4.43953,0.01342 -5.66994,0.662492 -0.69095,0.364487 -1.70359,1.170355 -2.24999,1.791105 -1.74231,1.979333 -1.76578,2.155435 -1.76578,13.151135 0,9.237587 0.0268,9.827079 0.50333,11.100609 0.63718,1.70303 2.67392,3.65308 4.35632,4.17081 0.77153,0.23743 2.37055,0.35902 4.87826,0.37052 3.23264,0.0148 3.91625,-0.0527 5.1263,-0.5054 1.66669,-0.62359 3.33117,-2.18487 4.09742,-3.84317 0.51901,-1.12312 0.53227,-1.40287 0.53227,-11.327475 V 80.491211 l -0.60255,-1.215947 c -0.76697,-1.547122 -2.04856,-2.828708 -3.58479,-3.584794 -1.14181,-0.561971 -1.44596,-0.593762 -5.62085,-0.593761 z m -0.0439,3.677812 c 3.90365,0 4.69945,0.238148 5.57072,1.667082 0.45286,0.742723 0.47857,1.295045 0.47955,10.250537 9.2e-4,9.43323 -8.1e-4,9.46827 -0.55552,10.29859 -0.30612,0.45825 -0.94039,1.02614 -1.40973,1.26194 -0.67624,0.33972 -1.48966,0.42877 -3.91862,0.42892 -3.67258,2.2e-4 -4.85012,-0.4128 -5.65082,-1.98231 -0.45069,-0.883385 -0.47956,-1.49306 -0.47956,-10.108943 0,-9.104662 0.004,-9.174267 0.55191,-9.979236 1.15928,-1.703343 1.55163,-1.83658 5.41207,-1.83658 z m 20.88348,10.743013 v 11.887646 c 0,11.21417 0.0231,11.88039 0.40721,11.76207 0.22397,-0.069 1.14017,-0.34551 2.03605,-0.61443 8.35771,-2.50878 14.37528,-6.12844 15.94786,-9.5927 0.60303,-1.32841 0.56994,-2.18021 -0.14107,-3.60701 -1.48352,-2.977037 -6.24734,-5.87048 -14.03429,-8.524028 -1.61464,-0.550209 -3.22354,-1.070402 -3.57549,-1.156002 z m -81.567116,0.0088 c -0.06808,0 -1.850694,0.570247 -3.961516,1.267106 -8.220904,2.713998 -13.586136,6.19395 -14.559834,9.44387 -0.225326,0.75207 -0.206672,1.07979 0.109554,1.9048 0.958283,2.50008 4.432643,5.60798 8.396903,7.51065 1.179417,0.56606 3.864675,1.60647 5.967078,2.31252 2.102403,0.70605 3.901182,1.28684 3.997172,1.28984 0.09598,0.003 0.174149,-5.33418 0.174149,-11.86129 0,-6.527118 -0.05543,-11.867496 -0.123506,-11.867496 z m 37.677803,1.632976 c 2.993882,0 3.535333,0.06237 4.232303,0.487308 1.50102,0.915172 1.77356,1.706476 1.77405,5.15059 6.4e-4,3.706642 -0.2873,4.494692 -1.95079,5.333532 -0.966391,0.48736 -1.43894,0.54806 -4.046261,0.52296 -3.34091,-0.0322 -3.667044,-0.0855 -4.610571,-0.75499 -1.200192,-0.85165 -1.406065,-1.58934 -1.405083,-5.028121 0.001,-3.524654 0.265835,-4.304079 1.774569,-5.223971 0.696968,-0.424979 1.237886,-0.487308 4.231783,-0.487308 z m -56.409477,17.38757 0.0615,22.07824 c 0.05903,21.13681 0.08053,22.1158 0.502812,22.96604 2.39518,4.8226 14.033988,9.65502 29.506726,12.25093 6.271709,1.05223 12.653437,1.70098 21.594548,2.19574 2.899133,0.16043 18.291154,-0.0704 21.640544,-0.32453 21.10753,-1.60154 37.87807,-6.26917 43.79938,-12.19047 2.09024,-2.09024 1.91726,0.0724 1.98697,-24.89254 l 0.062,-22.07256 -1.10897,0.8444 c -2.82781,2.15372 -7.17922,4.35008 -11.69645,5.90351 -19.42332,6.67945 -53.437415,8.19047 -79.293868,3.52279 -12.075878,-2.17997 -20.483471,-5.26929 -26.19375,-9.62474 z m 8.282699,8.90385 c 0.871387,0.001 4.270762,1.30262 4.836914,1.85157 0.618913,0.60012 0.568056,1.99346 -0.0987,2.70319 -0.703808,0.74917 -1.522985,0.71362 -3.822506,-0.16691 -2.159142,-0.82678 -2.675805,-1.3121 -2.675805,-2.51251 0,-1.0605 0.766125,-1.87734 1.760099,-1.87534 z m 100.804701,0.92966 c 0.67785,0 1.91564,1.1844 1.91564,1.83296 0,0.7849 -0.48117,1.58956 -1.13119,1.8924 -0.33784,0.15739 -1.33942,0.5356 -2.22571,0.84025 -1.79764,0.61792 -2.13816,0.65253 -2.80964,0.28526 -1.09981,-0.60155 -1.41144,-2.04074 -0.63976,-2.95383 0.44092,-0.52171 3.98627,-1.89704 4.89066,-1.89704 z m -87.385882,3.2799 c 0.699551,-0.0199 1.701691,0.14012 3.183785,0.45941 2.297601,0.49497 3.062385,2.09699 1.667082,3.49229 -0.388304,0.38831 -0.912517,0.67098 -1.221631,0.65888 -0.819624,-0.032 -3.964468,-0.79379 -4.53099,-1.09761 -0.767975,-0.41186 -1.073979,-1.54444 -0.674894,-2.49959 0.277678,-0.66458 0.677226,-0.98774 1.576648,-1.01338 z m 73.854402,0.54519 c 0.34443,0.002 0.6141,0.038 0.76327,0.11782 0.63833,0.34163 1.15418,1.47917 1.01079,2.22932 -0.17089,0.89391 -0.87893,1.32544 -2.90835,1.77199 -2.56715,0.56486 -3.10663,0.54534 -3.78995,-0.13798 -0.75466,-0.75465 -0.77668,-2.03742 -0.0475,-2.76469 0.58279,-0.58131 3.47926,-1.22422 4.97178,-1.21646 z m -59.988065,1.7849 c 0.301457,-0.0147 0.721187,0.022 1.388029,0.0811 0.987119,0.0875 2.184019,0.25919 2.659269,0.38189 1.647217,0.42526 2.097085,2.05459 0.898654,3.25303 -0.643665,0.64366 -1.250469,0.78607 -2.34456,0.55087 -0.191974,-0.0413 -0.968833,-0.14358 -1.72651,-0.22738 -2.462925,-0.27239 -3.4438,-1.95535 -1.987992,-3.41116 0.437634,-0.43764 0.610682,-0.60387 1.11311,-0.62839 z m 45.593595,0.33022 c 0.57593,-0.014 0.89389,0.0577 1.22009,0.22634 1.47096,0.76067 1.29653,3.07654 -0.26872,3.56722 -0.42833,0.13428 -1.68755,0.31491 -2.7988,0.40101 -1.95679,0.15167 -2.03937,0.13776 -2.61793,-0.4408 -0.80361,-0.80364 -0.81528,-2.0512 -0.0263,-2.84013 0.31414,-0.31414 0.70701,-0.57165 0.87281,-0.57258 0.16579,-9.7e-4 1.17643,-0.1023 2.24638,-0.22531 0.58823,-0.0676 1.02697,-0.10735 1.37252,-0.11575 z m -31.228063,0.95239 c 0.352874,-0.006 0.804438,-10e-4 1.393713,0.007 2.737949,0.038 3.533664,0.35165 3.845243,1.5167 0.21933,0.82009 -0.336677,2.01169 -1.068151,2.28979 -1.241204,0.47191 -4.940412,0.10046 -5.681824,-0.57051 -0.625306,-0.5659 -0.642551,-1.97225 -0.03307,-2.72128 0.317239,-0.38984 0.48547,-0.50306 1.544092,-0.52142 z m 15.803173,0.0884 c 2.31409,0 2.50798,0.0363 3.0427,0.57102 0.80061,0.80061 0.75884,1.83688 -0.10903,2.70475 -0.66531,0.66529 -0.73358,0.68006 -3.12074,0.68006 -2.43955,0 -2.44052,-7e-5 -3.04271,-0.71572 -0.78941,-0.93821 -0.76607,-1.71648 0.0775,-2.56005 0.66641,-0.66639 0.73056,-0.68006 3.15227,-0.68006 z m 18.65726,5.11907 c 0.46399,-0.026 0.95339,0.15292 1.372,0.57154 l 0.57155,0.57102 v 11.9631 c 0,11.75033 -0.009,11.97375 -0.48266,12.57597 -0.58987,0.74989 -1.76203,0.82661 -2.57504,0.16847 l -0.54932,-0.44442 -0.0687,-11.48095 c -0.0378,-6.31452 -0.006,-11.82733 0.0713,-12.25042 0.1854,-1.01878 0.88756,-1.63098 1.66088,-1.67431 z m -51.313151,0.0191 c 0.767399,0.0141 1.496123,0.53583 1.716691,1.42937 0.07189,0.29122 0.100718,5.78044 0.06408,12.19822 -0.06334,11.09677 -0.08797,11.69277 -0.509529,12.15843 -0.665181,0.73477 -2.0568,0.67066 -2.68149,-0.12351 C 71.41598,155.55985 71.40752,155.33643 71.40752,143.5861 V 131.623 l 0.571024,-0.57102 c 0.386351,-0.38635 0.860927,-0.5609 1.321367,-0.55242 z m 19.321301,5.33301 c 0.881163,0 18.08656,7.50734 18.51928,8.08064 0.34425,0.45609 0.38071,1.55568 0.0708,2.13475 -0.12936,0.24171 -3.85604,2.00951 -9.04079,4.28915 h -5.2e-4 c -5.28996,2.3259 -9.113717,3.87883 -9.552904,3.87883 -0.422064,0 -0.929638,-0.19739 -1.19786,-0.4656 -0.447911,-0.44792 -0.465088,-0.77566 -0.465088,-8.72609 0,-7.95044 0.01718,-8.27817 0.465088,-8.72608 0.269329,-0.26933 0.775788,-0.4656 1.201994,-0.4656 z m 1.823144,4.43797 v 4.75888 4.7594 l 1.221631,-0.53899 c 0.67191,-0.29637 3.082566,-1.35786 5.356775,-2.35851 2.27421,-1.00066 4.10187,-1.85177 4.06177,-1.89187 -0.0613,-0.0613 -6.275412,-2.82905 -9.651089,-4.29845 z m -45.762581,11.85095 c 0.790212,0 4.40573,1.58063 4.86637,2.12752 0.467642,0.55521 0.525023,1.77176 0.109037,2.31356 -0.155908,0.20307 -0.512135,0.49138 -0.791683,0.64027 -0.72144,0.38424 -0.895221,0.35429 -3.073714,-0.52917 -2.3585,-0.95645 -2.910417,-1.44944 -2.910417,-2.59932 0,-0.96808 0.908057,-1.95286 1.800407,-1.95286 z m 100.514797,0.46664 c 0.87366,-0.001 1.79317,0.93997 1.79317,1.83658 0,1.0206 -0.8235,1.7889 -2.76624,2.58072 -2.12698,0.86692 -3.10611,0.89985 -3.87625,0.12971 -0.72584,-0.72584 -0.7453,-1.76954 -0.0475,-2.54403 0.58495,-0.64926 3.89068,-2.00098 4.89686,-2.00298 z m -87.249457,3.95428 c 0.191714,0 1.273001,0.21855 2.402954,0.48524 2.363826,0.55792 3.10162,1.08438 3.10162,2.21279 0,1.07449 -0.197991,1.46102 -0.947229,1.84847 -0.825709,0.42698 -0.835416,0.4265 -3.337781,-0.21705 -2.277008,-0.5856 -2.928503,-1.09247 -2.928503,-2.27841 0,-0.74616 1.087093,-2.05104 1.708939,-2.05104 z m 73.628067,0.39016 c 0.33286,-0.0114 0.59852,0.0112 0.75602,0.0765 0.80603,0.33387 1.21828,1.10132 1.12138,2.08825 -0.0946,0.96352 -0.80047,1.5094 -2.51922,1.94768 v -5.2e-4 c -2.74601,0.70027 -3.12008,0.70313 -3.9207,0.0295 -0.93024,-0.78276 -1.02632,-2.08688 -0.20928,-2.83549 0.62623,-0.57378 3.3294,-1.25662 4.7718,-1.30586 z M 75.861003,159.351 c 0.334973,-0.007 0.804141,0.0258 1.51722,0.0837 3.11719,0.25293 4.035412,0.80441 4.035412,2.42414 0,0.48784 -0.212026,0.87075 -0.716235,1.29502 -0.79591,0.6697 -0.933058,0.67978 -3.616317,0.26303 -2.187754,-0.33979 -2.301319,-0.3932 -2.771407,-1.30225 -0.427917,-0.8275 -0.262362,-1.62453 0.483175,-2.32492 0.323881,-0.30427 0.509863,-0.42695 1.068152,-0.43873 z m 45.620467,0.0858 c 0.53871,-0.0136 0.80474,0.0794 1.19166,0.30541 1.54906,0.9047 1.26106,3.06592 -0.47025,3.52846 -0.48501,0.12958 -1.73646,0.30613 -2.78071,0.39223 -1.83076,0.151 -1.92035,0.13535 -2.50166,-0.44597 -0.75029,-0.75029 -0.80856,-1.94412 -0.13074,-2.67167 0.5306,-0.56953 0.76184,-0.63709 3.34243,-0.97462 0.6049,-0.0791 1.02605,-0.12566 1.34927,-0.13384 z m -29.825566,1.29449 c 2.292067,0 2.585817,0.0491 3.124874,0.52349 0.910948,0.80163 1.001452,1.79338 0.245463,2.69182 l -0.623218,0.74053 -2.247925,-0.0186 c -2.499019,-0.0204 -2.720901,-0.0682 -3.470072,-0.74982 -0.667993,-0.60773 -0.686431,-1.75442 -0.04134,-2.57452 0.468177,-0.59522 0.556407,-0.61289 3.012219,-0.61289 z m 14.538646,0 c 2.06031,0 2.27692,0.044 2.80396,0.57103 0.94158,0.94158 0.754,2.45981 -0.3762,3.04426 -0.86118,0.44533 -5.0389,0.46264 -5.61723,0.0232 -0.663,-0.50368 -0.94356,-1.53131 -0.62683,-2.29598 0.43156,-1.04187 1.28601,-1.34256 3.8163,-1.34256 z"
	   fill="param(fill)"
	   fill-opacity="param(fill-opacity)"
       stroke="param(outline)"
       stroke-opacity="param(outline-opacity)"
	   /></g></svg>
