<?xml version="1.0" encoding="UTF-8" standalone="no"?>
<!-- Created with Inkscape (http://www.inkscape.org/) -->

<svg
   width="119.88285mm"
   height="110.67345mm"
   viewBox="0 0 119.88285 110.67345"
   version="1.1"
   id="svg5"
   inkscape:version="1.1.2 (b8e25be833, 2022-02-05)"
   sodipodi:docname="PASTE_STYLE.svg"
   xmlns:inkscape="http://www.inkscape.org/namespaces/inkscape"
   xmlns:sodipodi="http://sodipodi.sourceforge.net/DTD/sodipodi-0.dtd"
   xmlns="http://www.w3.org/2000/svg"
   xmlns:svg="http://www.w3.org/2000/svg">
  <sodipodi:namedview
     id="namedview7"
     pagecolor="#ffffff"
     bordercolor="#666666"
     borderopacity="1.0"
     inkscape:pageshadow="2"
     inkscape:pageopacity="0.0"
     inkscape:pagecheckerboard="0"
     inkscape:document-units="mm"
     showgrid="false"
     inkscape:zoom="2.749612"
     inkscape:cx="254.94507"
     inkscape:cy="175.11562"
     inkscape:window-width="1920"
     inkscape:window-height="1001"
     inkscape:window-x="-9"
     inkscape:window-y="-9"
     inkscape:window-maximized="1"
     inkscape:current-layer="rect37575" />
  <defs
     id="defs2" />
  <g
     inkscape:label="Camada 1"
     inkscape:groupmode="layer"
     id="layer1"
     transform="translate(-38.248845,-105.29711)">
    <rect
       style="fill:#ffffff;stroke:#4d4d4d;stroke-width:2.10701;stroke-linecap:round;stroke-linejoin:round"
       id="rect971"
       width="89.864998"
       height="89.277802"
       x="60.176788"
       y="108.0482"
       ry="19.506077" />
    <g
       id="rect37575"
       transform="matrix(0.58749617,0.57266746,-0.57306617,0.58708743,-14.328616,43.590029)">
      <path
         style="color:#000000;fill:#000000;stroke-width:2.60588;stroke-linecap:round;stroke-linejoin:round;-inkscape-stroke:none"
         d="m 173.24668,-26.18291 c 15.43863,0.2308 30.87726,0.461599 46.31589,0.692397 0.18781,12.571981 0.37561,25.14395043 0.56341,37.715914 -15.43863,-0.230799 -30.87725,-0.461597 -46.31589,-0.692396 -0.1878,-12.5719636 -0.37561,-25.143933 -0.56341,-37.715915 z"
         id="path38827" />
    </g>
    <g
       id="g37168-4-7"
       transform="matrix(0.65023674,0,0,0.64978434,131.63174,71.469535)">
      <g
         id="g93-5-4"
         transform="translate(-188.38489,-7.8345324)">
        <path
           style="fill:#9a9ea0;stroke-width:0.264583"
           d="m 61.155303,223.32365 c -8.230106,-1.75115 -13.368845,-10.70132 -11.406121,-18.77329 0.992125,-7.40977 8.18161,-11.85268 14.946695,-13.26274 8.076594,-6.41838 14.959051,-14.35763 22.287262,-21.64904 5.799672,-5.53411 4.905296,-14.46934 1.24214,-20.90567 -4.901716,-7.19429 0.946237,-14.73984 7.183989,-18.34848 4.594962,-5.20366 9.608592,-10.38314 14.629672,-15.52464 8.95799,-8.78842 17.53256,-18.019606 26.94001,-26.318495 6.16231,-2.020736 9.72631,7.65816 13.72754,8.434004 -1.99344,-8.247537 10.69381,-12.271107 13.6567,-4.492351 -0.14253,3.162012 0.85874,13.282042 4.46669,6.419015 0.32004,-7.933516 13.38455,-8.400159 13.88707,-0.371273 0.44368,10.53914 0.21911,21.09816 0.34946,31.6462 5.41719,5.95142 -3.51022,10.71791 -6.84864,14.98788 -9.22705,9.22729 -18.22675,18.74012 -28.03594,27.34543 -5.16284,4.36055 -8.60827,11.33992 -15.27582,14.09696 -7.53015,1.21552 -13.55582,-6.27543 -21.24141,-4.43502 -7.50285,0.95518 -11.59526,8.34738 -17.04375,12.74571 -4.619227,5.69211 -12.3439,9.68513 -13.926789,17.27639 -2.210842,8.584 -11.057655,13.10177 -19.538758,11.12941 z m 82.494537,-77.07429 c 6.5054,-4.64788 -2.00348,-7.85142 -4.31876,-1.63842 -3.85384,3.98982 2.3947,5.8353 4.31876,1.63842 z m 21.24134,-7.97004 c 3.16475,-3.16567 6.32951,-6.33133 9.49426,-9.497 -4.14786,-6.17639 -8.55907,4.58341 -12.58007,6.76556 -1.88629,3.52148 -12.8036,8.86723 -7.38282,12.22845 4.07897,-2.14877 6.99052,-6.45476 10.46863,-9.49701 z m -17.33531,-9.65544 c 4.44642,-4.44387 8.89285,-8.88774 13.33927,-13.33161 -3.96246,-6.27067 -8.17807,4.0507 -12.02511,6.22121 -5.88289,5.95673 -11.90206,11.79382 -17.5412,17.9814 2.69925,6.29984 8.83001,-4.81254 12.26033,-6.91197 1.32353,-1.31838 2.64535,-2.63848 3.96671,-3.95903 z m 4.34995,9.07041 c 5.40085,-4.94899 10.61474,-10.13683 15.52688,-15.57078 -4.26021,-6.22028 -9.23878,5.51266 -13.44268,7.81488 -1.84155,1.92813 -8.89906,7.90985 -2.0842,7.7559 z m -28.62147,-11.7956 c 5.61186,-2.81385 0.0144,-8.73335 -2.86749,-2.9132 -5.63036,3.79968 -0.72481,8.25552 2.86749,2.9132 z m 22.90519,-9.40334 c 2.4765,-2.98466 11.06657,-8.5209 4.76507,-10.57898 -5.1142,5.18049 -10.43561,10.16942 -15.28615,15.60007 0.60022,7.86101 8.65837,-4.14007 10.52108,-5.02109 z m -6.70636,-6.78844 c 2.63986,-2.63565 5.27972,-5.27129 7.91958,-7.90694 -3.79268,-6.088697 -7.88739,3.5518 -11.55671,5.77271 -2.4576,2.2885 -11.25844,10.23008 -3.82343,9.34289 2.60509,-2.2761 4.99499,-4.78515 7.46056,-7.20866 z"
           id="path109-4-6" />
        <path
           style="fill:#708995;stroke-width:0.264583"
           d="m 61.698466,223.31718 c -9.97919,-1.95691 -15.539701,-14.43885 -10.222813,-23.15726 2.943479,-6.82424 11.118082,-6.50244 15.99675,-10.72225 7.540064,-7.29395 15.152675,-14.5784 21.996051,-22.53389 3.600515,-5.98549 1.638122,-13.11123 -1.279348,-18.91652 -5.415536,-8.1729 3.567057,-13.88318 8.209404,-18.79377 5.12274,-4.00684 8.60218,-9.75547 13.67891,-14.17357 8.91802,-8.86403 17.67822,-17.91332 26.98585,-26.367261 6.08698,-2.080584 9.91564,8.404362 13.90184,8.560915 -2.52405,-9.400592 13.10274,-12.404143 13.47028,-2.658697 -1.96641,4.102924 3.44372,10.728693 4.70263,4.050826 0.82766,-8.594918 14.90756,-6.718141 13.44575,1.747677 0.17921,9.9399 0.14731,19.88237 0.21806,29.82351 5.83197,5.98136 -3.78113,10.85067 -7.10561,15.22704 -9.61848,9.41952 -18.88577,19.52349 -29.03329,28.20071 -5.20768,4.4189 -8.94722,13.61996 -17.16574,12.86964 -6.82414,-1.83235 -13.69648,-7.01291 -20.9894,-3.76666 -6.90715,3.44146 -11.504407,10.20992 -17.249129,15.21986 -5.33861,5.02143 -10.702708,10.12399 -12.155467,17.56984 -3.378523,5.99275 -10.629538,9.51353 -17.404728,7.81986 z m 79.850384,-50.84331 c -0.8907,-6.00292 -8.84441,-10.09857 -12.63056,-15.18382 -8.77991,-8.55115 -17.08593,-17.6251 -26.2937,-25.71531 -6.057636,0.11426 3.56187,7.47557 5.20721,9.62101 10.61258,10.41366 20.75,21.35026 31.81622,31.27808 0.45419,0.58951 1.49608,0.66406 1.90083,4e-5 z m -0.36291,-23.48285 c 3.93349,-1.29911 8.45136,-10.60037 1.3484,-7.97697 -2.912,1.53356 -8.50143,8.68743 -1.3484,7.97697 z m 23.79095,-10.27179 c 2.22287,-4.10003 13.17964,-8.55941 6.83184,-12.81689 -1.77281,-0.27638 -3.50149,3.18474 -5.25707,4.36739 -4.77093,4.90973 -9.8944,9.50931 -14.30976,14.73975 1.0577,9.18752 9.92154,-4.74234 12.73499,-6.29025 z m -30.79815,3.47326 c 9.15377,-8.74442 18.13816,-17.68624 26.90396,-26.81895 -4.51497,-7.80178 -9.55196,4.7291 -14.04499,7.16044 -5.30232,5.52284 -10.95301,10.75012 -15.87867,16.61277 -1.0659,1.7246 1.3673,3.97895 3.0197,3.04574 z m 25.90159,-11.80661 c 2.36675,-3.62327 11.83954,-7.86255 4.57663,-11.44913 -5.45042,5.19753 -11.03529,10.3531 -15.88388,16.11344 0.52749,8.91653 9.07291,-3.13183 11.30725,-4.66431 z m -36.51554,-4.25246 c 5.42378,-2.10491 1.14324,-9.73718 -2.52321,-4.32687 -6.46925,3.20164 -2.61134,11.28473 2.52321,4.32687 z m 23.07359,-9.55847 c 2.63765,-2.63633 5.27531,-5.27265 7.91296,-7.90898 -3.42475,-6.20794 -7.35474,0.99911 -10.72958,3.8557 -2.32886,3.08782 -13.10288,9.99686 -5.71911,11.95867 3.19537,-2.20388 5.72749,-5.24749 8.53573,-7.90539 z m -6.92078,-6.58093 c 2.5321,-3.58928 11.26431,-7.67452 4.81253,-11.356838 -2.22788,1.461488 -4.43852,4.336898 -6.65978,6.340878 -2.94861,3.942 -9.30058,6.77789 -9.31056,11.88095 3.95355,3.74163 8.0218,-5.28251 11.15781,-6.86499 z"
           id="path107-8-7" />
        <path
           style="fill:#fa541f;stroke-width:0.264583"
           d="m 62.26083,223.44134 c -10.44367,-1.77982 -16.46962,-15.14435 -10.312892,-23.96098 2.965924,-6.34762 10.776452,-5.83015 15.355639,-9.84726 7.587558,-7.68711 15.862688,-14.8604 22.545036,-23.34507 3.679937,-6.6109 0.439918,-13.94839 -2.378909,-20.17238 -3.310213,-7.10401 3.969892,-12.13396 8.417949,-15.96217 4.976787,-4.95801 9.733457,-10.42229 14.921907,-15.53678 8.74509,-8.71556 17.30884,-17.632334 26.386,-26.001652 5.8274,-2.653999 11.0505,10.782164 13.8282,7.922504 -1.64124,-7.934328 10.62279,-11.563053 13.10825,-3.747289 0.10134,2.939491 0.21898,12.243437 4.68667,7.419437 -0.53559,-8.566626 12.89993,-9.825106 13.69527,-1.536814 0,10.345224 0,20.690454 0,31.035684 5.60343,4.90485 -1.13702,9.78058 -4.69868,13.33436 -9.4469,9.58238 -18.79208,19.27972 -28.56509,28.52971 -6.01303,3.67245 -8.86479,11.10777 -15.49108,14.4026 -7.2761,2.24209 -13.33046,-5.29533 -20.69074,-4.30545 -8.5899,0.42486 -13.37354,8.5953 -19.282745,13.70184 -4.456179,5.56173 -12.028197,9.37054 -13.409016,16.86449 -2.088139,7.64403 -10.338156,12.79324 -18.115769,11.20522 z m 79.38702,-50.91444 c -0.0204,-5.44364 -7.86316,-9.43295 -11.25642,-14.02878 -9.28896,-9.20062 -18.37836,-18.61925 -27.96302,-27.5115 -6.141109,3.19151 5.3686,8.72283 7.41724,12.50875 9.988,9.72742 19.42122,20.07413 29.89638,29.27338 0.54017,0.68196 1.54317,0.40702 1.90582,-0.24185 z m 2.50152,-25.94761 c 6.46922,-3.21857 -0.62513,-10.30161 -3.82507,-3.8269 -6.49774,4.0627 -0.34985,10.239 3.82507,3.8269 z m 11.58866,1.61268 c 6.5567,-6.1452 12.94721,-12.48778 19.103,-19.03428 -4.55567,-8.11489 -9.96144,4.0414 -14.45419,6.7766 -2.20346,2.87637 -14.95077,12.16167 -4.64881,12.25768 z m -21.46162,-5.7214 c 9.27727,-8.57231 18.25818,-17.53203 26.80629,-26.82982 -4.4076,-8.2937 -9.85611,4.34694 -14.45693,7.04629 -5.2521,5.40598 -10.88527,10.47905 -15.75999,16.22695 -0.90013,1.93895 1.35438,4.62029 3.41063,3.55658 z m 25.80392,-11.82011 c 2.48602,-3.61843 11.95328,-8.18209 4.44434,-11.71371 -5.58192,5.10057 -11.13184,10.35226 -16.01871,16.11841 0.76434,9.2963 9.09177,-2.61174 11.57437,-4.4047 z m -39.00272,-1.77275 c 4.16457,-1.34042 8.62555,-10.70887 1.28321,-8.69578 -3.2507,1.72226 -9.09368,9.72511 -1.28321,8.69578 z m 17.59905,-4.14799 c 5.50032,-5.03654 10.80548,-10.3239 15.79146,-15.86963 -3.89683,-7.8973 -8.79987,2.52717 -12.8053,5.29461 -2.50318,2.45992 -11.85226,10.50765 -2.98616,10.57502 z m -7.04608,-6.60243 c 5.5497,-5.08396 11.24531,-10.26031 16.05312,-15.97626 -3.81123,-7.871848 -8.91075,2.74857 -12.88107,5.39466 -2.27549,2.63257 -12.08569,10.00277 -3.17205,10.5816 z"
           id="path105-3-3" />
        <path
           style="fill:#5e7b89;stroke-width:0.264583"
           d="m 62.26083,223.44134 c -10.44367,-1.77982 -16.46962,-15.14435 -10.312892,-23.96098 2.965924,-6.34762 10.776452,-5.83015 15.355639,-9.84726 7.587558,-7.68711 15.862688,-14.8604 22.545036,-23.34507 3.679937,-6.6109 0.439918,-13.94839 -2.378909,-20.17238 -3.310213,-7.10401 3.969892,-12.13396 8.417949,-15.96217 4.976787,-4.95801 9.733457,-10.42229 14.921907,-15.53678 8.74509,-8.71556 17.30884,-17.632334 26.386,-26.001652 5.8274,-2.653999 11.0505,10.782164 13.8282,7.922504 -1.64124,-7.934328 10.62279,-11.563053 13.10825,-3.747289 0.10134,2.939491 0.21898,12.243437 4.68667,7.419437 -0.53559,-8.566626 12.89993,-9.825106 13.69527,-1.536814 0,10.345224 0,20.690454 0,31.035684 5.60343,4.90485 -1.13702,9.78058 -4.69868,13.33436 -9.4469,9.58238 -18.79208,19.27972 -28.56509,28.52971 -6.01303,3.67245 -8.86479,11.10777 -15.49108,14.4026 -7.2761,2.24209 -13.33046,-5.29533 -20.69074,-4.30545 -8.5899,0.42486 -13.37354,8.5953 -19.282745,13.70184 -4.456179,5.56173 -12.028197,9.37054 -13.409016,16.86449 -2.088139,7.64403 -10.338156,12.79324 -18.115769,11.20522 z m 5.726769,-4.9764 c 8.902804,-1.67603 6.914247,-12.62186 13.168066,-17.16463 7.191291,-7.12485 13.940637,-14.81207 21.824615,-21.1708 6.88194,-4.59829 15.86053,-3.77267 22.89819,0.0144 3.35289,3.36983 10.5238,0.50536 10.33124,-3.13209 -13.53359,-13.45983 -26.89144,-27.10185 -40.63348,-40.34803 -7.748225,4.10974 -1.531739,11.7137 0.08838,17.51433 1.861342,7.6298 -0.885008,15.86694 -7.009936,20.79872 -7.020103,6.83014 -13.483006,14.3108 -21.12474,20.45429 -7.454391,1.27453 -15.95501,7.38798 -12.721405,16.02819 1.702462,5.30173 7.781202,8.77869 13.179069,7.00558 z m -4.415879,-8.89638 c -1.906257,-11.01917 10.041751,2.61055 0,0 z m 78.07613,-37.04166 c -0.0204,-5.44364 -7.86316,-9.43295 -11.25642,-14.02878 -9.28896,-9.20062 -18.37836,-18.61925 -27.96302,-27.5115 -6.141109,3.19151 5.3686,8.72283 7.41724,12.50875 9.988,9.72742 19.42122,20.07413 29.89638,29.27338 0.54017,0.68196 1.54317,0.40702 1.90582,-0.24185 z m 2.50152,-25.94761 c 6.46922,-3.21857 -0.62513,-10.30161 -3.82507,-3.8269 -6.49774,4.0627 -0.34985,10.239 3.82507,3.8269 z m 11.58866,1.61268 c 6.5567,-6.1452 12.94721,-12.48778 19.103,-19.03428 -4.55567,-8.11489 -9.96144,4.0414 -14.45419,6.7766 -2.20346,2.87637 -14.95077,12.16167 -4.64881,12.25768 z m -21.46162,-5.7214 c 9.27727,-8.57231 18.25818,-17.53203 26.80629,-26.82982 -4.4076,-8.2937 -9.85611,4.34694 -14.45693,7.04629 -5.2521,5.40598 -10.88527,10.47905 -15.75999,16.22695 -0.90013,1.93895 1.35438,4.62029 3.41063,3.55658 z m 25.80392,-11.82011 c 2.48602,-3.61843 11.95328,-8.18209 4.44434,-11.71371 -5.58192,5.10057 -11.13184,10.35226 -16.01871,16.11841 0.76434,9.2963 9.09177,-2.61174 11.57437,-4.4047 z m -39.00272,-1.77275 c 4.16457,-1.34042 8.62555,-10.70887 1.28321,-8.69578 -3.2507,1.72226 -9.09368,9.72511 -1.28321,8.69578 z m 17.59905,-4.14799 c 5.50032,-5.03654 10.80548,-10.3239 15.79146,-15.86963 -3.89683,-7.8973 -8.79987,2.52717 -12.8053,5.29461 -2.50318,2.45992 -11.85226,10.50765 -2.98616,10.57502 z m -7.04608,-6.60243 c 5.5497,-5.08396 11.24531,-10.26031 16.05312,-15.97626 -3.81123,-7.871848 -8.91075,2.74857 -12.88107,5.39466 -2.27549,2.63257 -12.08569,10.00277 -3.17205,10.5816 z"
           id="path103-8-8" />
        <path
           style="fill:#e31c60;stroke-width:0.264583"
           d="m 61.74925,223.30573 c -9.887221,-2.07764 -15.573991,-14.48304 -10.188595,-23.16581 3.168267,-7.42717 12.534917,-6.23399 17.225351,-11.72781 7.061475,-7.11629 14.729613,-13.80483 20.873238,-21.73007 4.028718,-6.83539 0.626182,-14.55677 -2.341223,-21.02945 -3.214627,-8.67066 6.873229,-12.37807 10.70314,-18.08791 5.683639,-4.7629 10.446189,-11.13689 16.109839,-16.24387 7.93131,-7.61728 15.223,-16.016765 23.73451,-22.955395 5.67731,-0.240083 8.76801,8.216722 13.0853,9.225145 -2.46738,-8.959057 12.13458,-13.271662 13.3869,-3.436689 -1.6302,3.890962 2.73003,11.582839 4.90209,4.694381 1.35875,-10.210421 16.37346,-5.576345 13.16179,3.699838 0.11752,9.21955 0.16124,18.43994 0.24465,27.65987 5.99928,5.3954 -3.2532,10.34622 -6.41761,14.40964 -9.40547,9.17119 -18.25829,18.98216 -28.20185,27.55739 -5.32422,4.23698 -8.70032,11.88664 -15.70101,14.0874 -4.78009,1.06694 -8.69675,-2.7377 -13.1527,-3.77628 -6.73043,-2.56377 -14.09686,0.60283 -18.40506,6.00923 -6.37463,6.33536 -12.89742,12.54372 -18.928459,19.20912 -1.65733,6.26357 -4.67532,13.10645 -11.50893,15.07428 -2.737193,0.90062 -5.757064,1.14135 -8.581371,0.52699 z m 6.238349,-4.84079 c 8.902804,-1.67603 6.914247,-12.62186 13.168066,-17.16463 7.191291,-7.12485 13.940637,-14.81207 21.824615,-21.1708 6.88194,-4.59829 15.86053,-3.77267 22.89819,0.0144 3.35289,3.36983 10.5238,0.50536 10.33124,-3.13209 -13.53359,-13.45983 -26.89144,-27.10185 -40.63348,-40.34803 -7.748225,4.10974 -1.531739,11.7137 0.08838,17.51433 1.861342,7.6298 -0.885008,15.86694 -7.009936,20.79872 -7.020103,6.83014 -13.483006,14.3108 -21.12474,20.45429 -7.454391,1.27453 -15.95501,7.38798 -12.721405,16.02819 1.702462,5.30173 7.781202,8.77869 13.179069,7.00558 z m -4.415879,-8.89638 c -1.906257,-11.01917 10.041751,2.61055 0,0 z m 78.07613,-37.04166 c -0.0396,-5.47707 -7.9271,-9.49344 -11.3477,-14.12052 -9.29254,-9.00795 -18.01901,-18.64404 -27.7723,-27.15121 -6.430231,0.85901 3.37329,8.02581 5.4342,10.58966 10.37484,10.2766 20.46866,20.85415 31.16275,30.79792 0.67286,0.8954 1.88988,0.53393 2.52305,-0.11585 z m 20.08437,-23.41571 c 5.46354,-5.46407 10.92708,-10.92815 16.39062,-16.39222 -3.49348,-4.42429 -7.95363,-7.77354 -11.38008,-12.19317 -5.69275,-4.69023 -10.3064,-10.37395 -15.7088,-15.34738 -3.75876,-3.9677 -7.81918,-7.635934 -11.85498,-11.425068 -1.7191,0.118054 -3.42503,3.230949 -5.1392,4.470152 -9.41837,9.417476 -18.83674,18.834946 -28.25512,28.252416 13.08782,13.01792 26.01002,26.20728 39.29088,39.0275 5.6694,-5.34014 11.1247,-10.90958 16.65668,-16.39223 z"
           id="path101-8-5" />
        <path
           style="fill:#585f63;stroke-width:0.264583"
           d="m 61.74925,223.30573 c -9.887221,-2.07764 -15.573991,-14.48304 -10.188595,-23.16581 3.168267,-7.42717 12.534917,-6.23399 17.225351,-11.72781 7.061475,-7.11629 14.729613,-13.80483 20.873238,-21.73007 4.028718,-6.83539 0.626182,-14.55677 -2.341223,-21.02945 -3.214627,-8.67066 6.873229,-12.37807 10.70314,-18.08791 5.683639,-4.7629 10.446189,-11.13689 16.109839,-16.24387 7.93131,-7.61728 15.223,-16.016765 23.73451,-22.955395 5.67731,-0.240083 8.76801,8.216722 13.0853,9.225145 -2.46738,-8.959057 12.13458,-13.271662 13.3869,-3.436689 -1.6302,3.890962 2.73003,11.582839 4.90209,4.694381 1.35875,-10.210421 16.37346,-5.576345 13.16179,3.699838 0.11752,9.21955 0.16124,18.43994 0.24465,27.65987 5.99928,5.3954 -3.2532,10.34622 -6.41761,14.40964 -9.40547,9.17119 -18.25829,18.98216 -28.20185,27.55739 -5.32422,4.23698 -8.70032,11.88664 -15.70101,14.0874 -4.78009,1.06694 -8.69675,-2.7377 -13.1527,-3.77628 -6.73043,-2.56377 -14.09686,0.60283 -18.40506,6.00923 -6.37463,6.33536 -12.89742,12.54372 -18.928459,19.20912 -1.65733,6.26357 -4.67532,13.10645 -11.50893,15.07428 -2.737193,0.90062 -5.757064,1.14135 -8.581371,0.52699 z m 6.238349,-4.84079 c 8.902804,-1.67603 6.914247,-12.62186 13.168066,-17.16463 7.191291,-7.12485 13.940637,-14.81207 21.824615,-21.1708 6.88194,-4.59829 15.86053,-3.77267 22.89819,0.0144 3.35289,3.36983 10.5238,0.50536 10.33124,-3.13209 -13.53359,-13.45983 -26.89144,-27.10185 -40.63348,-40.34803 -7.748225,4.10974 -1.531739,11.7137 0.08838,17.51433 1.861342,7.6298 -0.885008,15.86694 -7.009936,20.79872 -7.020103,6.83014 -13.483006,14.3108 -21.12474,20.45429 -7.454391,1.27453 -15.95501,7.38798 -12.721405,16.02819 1.702462,5.30173 7.781202,8.77869 13.179069,7.00558 z m -4.415879,-8.89638 c -1.906257,-11.01917 10.041751,2.61055 0,0 z m 78.07613,-37.04166 c -0.0396,-5.47707 -7.9271,-9.49344 -11.3477,-14.12052 -9.29254,-9.00795 -18.01901,-18.64404 -27.7723,-27.15121 -6.430231,0.85901 3.37329,8.02581 5.4342,10.58966 10.37484,10.2766 20.46866,20.85415 31.16275,30.79792 0.67286,0.8954 1.88988,0.53393 2.52305,-0.11585 z m 20.08437,-23.41571 c 5.46354,-5.46407 10.92708,-10.92815 16.39062,-16.39222 -3.49348,-4.42429 -7.95363,-7.77354 -11.38008,-12.19317 -5.69275,-4.69023 -10.3064,-10.37395 -15.7088,-15.34738 -3.75876,-3.9677 -7.81918,-7.635934 -11.85498,-11.425068 -1.7191,0.118054 -3.42503,3.230949 -5.1392,4.470152 -9.41837,9.417476 -18.83674,18.834946 -28.25512,28.252416 13.08782,13.01792 26.01002,26.20728 39.29088,39.0275 5.6694,-5.34014 11.1247,-10.90958 16.65668,-16.39223 z m 12.05048,-37.71506 c -0.28425,-3.56839 1.30276,-11.86305 -3.11019,-5.93889 -7.47721,4.49755 -12.53891,-4.78614 -11.28222,-11.315695 -4.97415,-2.92865 -3.24342,5.421044 -3.6317,8.485845 4.9672,5.5765 10.75283,10.89007 16.1478,16.2061 3.27801,4.39875 1.29583,-6.16178 1.87631,-7.43736 z"
           id="path99-6-4" />
        <path
           style="fill:#a81252;stroke-width:0.264583"
           d="m 63.319163,223.54662 c -9.589645,-1.45809 -17.096141,-12.78037 -12.259995,-21.80013 2.594764,-8.56702 12.670263,-7.47849 17.754643,-13.09891 7.126668,-7.16493 14.82441,-13.92351 21.066185,-21.87384 3.682488,-6.29784 1.25112,-13.6879 -1.767381,-19.69348 -4.13711,-7.29809 3.213476,-12.94666 8.029612,-16.90563 5.234153,-4.90026 9.837113,-10.78267 15.331093,-15.91604 8.53164,-8.50965 17.04167,-17.042007 25.65487,-25.469072 5.93094,-2.60282 10.47042,11.041815 14.1385,8.221986 -1.87293,-7.39346 9.34527,-12.201819 12.36043,-4.665376 0.77885,3.242508 0.0667,13.417722 5.47493,7.938932 -0.4205,-7.13803 10.36368,-10.155688 12.76282,-3.016463 0.76789,10.878423 0.23109,21.822883 0.3845,32.730583 5.96486,4.57225 -1.173,9.35557 -4.56782,12.79494 -9.9203,9.69553 -19.25563,20.05763 -29.706,29.17189 -5.71988,4.4101 -9.16403,13.22718 -17.21127,14.25058 -7.1395,-1.00644 -13.75004,-6.98298 -21.3044,-4.17585 -7.04387,2.66457 -11.365042,9.4629 -16.956969,14.20507 -4.07974,4.8029 -10.480061,8.36496 -12.100789,14.7596 -1.471759,7.81538 -9.280903,13.29741 -17.082959,12.54121 z m 4.668436,-5.08168 c 8.902804,-1.67603 6.914247,-12.62186 13.168066,-17.16463 7.191291,-7.12485 13.940637,-14.81207 21.824615,-21.1708 6.88194,-4.59829 15.86053,-3.77267 22.89819,0.0144 3.35289,3.36983 10.5238,0.50536 10.33124,-3.13209 -13.53359,-13.45983 -26.89144,-27.10185 -40.63348,-40.34803 -7.748225,4.10974 -1.531739,11.7137 0.08838,17.51433 1.861342,7.6298 -0.885008,15.86694 -7.009936,20.79872 -7.020103,6.83014 -13.483006,14.3108 -21.12474,20.45429 -7.454391,1.27453 -15.95501,7.38798 -12.721405,16.02819 1.702462,5.30173 7.781202,8.77869 13.179069,7.00558 z m -4.415879,-8.89638 c -1.906257,-11.01917 10.041751,2.61055 0,0 z m 78.37778,-36.70293 c 0.89382,-6.05625 -8.14553,-9.74001 -11.28293,-14.62392 -9.47318,-9.14122 -18.31955,-19.02537 -28.28464,-27.60163 -7.250324,2.97036 5.50939,9.71948 7.53262,13.44908 9.8271,9.64897 19.26704,19.71823 29.43613,29.00337 0.74649,0.61551 1.92023,0.37732 2.59882,-0.2269 z m 37.36416,-39.3763 c -12.85461,-13.81996 -26.42715,-26.98593 -39.98025,-40.123981 -4.94565,2.59758 -9.45654,8.877461 -14.15656,12.935571 -6.52928,6.84243 -13.83338,13.09164 -19.70088,20.47338 13.59854,13.73166 27.15669,27.5399 41.18694,40.82191 11.09564,-11.08785 22.19128,-22.1757 33.28691,-33.26356 -0.21205,-0.28111 -0.42411,-0.56221 -0.63616,-0.84332 z m -5.53096,-22.0932 c -0.28425,-3.56839 1.30276,-11.86305 -3.11019,-5.93889 -7.47721,4.49755 -12.53891,-4.78614 -11.28222,-11.315695 -4.97415,-2.92865 -3.24342,5.421044 -3.6317,8.485845 4.9672,5.5765 10.75283,10.89007 16.1478,16.2061 3.27801,4.39875 1.29583,-6.16178 1.87631,-7.43736 z"
           id="path97-2-7" />
        <path
           style="fill:#050404;stroke-width:0.264583"
           d="m 63.319163,223.54662 c -9.589645,-1.45809 -17.096141,-12.78037 -12.259995,-21.80013 2.594764,-8.56702 12.670263,-7.47849 17.754643,-13.09891 7.126668,-7.16493 14.82441,-13.92351 21.066185,-21.87384 3.682488,-6.29784 1.25112,-13.6879 -1.767381,-19.69348 -4.13711,-7.29809 3.213476,-12.94666 8.029612,-16.90563 5.234153,-4.90026 9.837113,-10.78267 15.331093,-15.91604 8.53164,-8.50965 17.04167,-17.042007 25.65487,-25.469072 5.93094,-2.60282 10.47042,11.041815 14.1385,8.221986 -1.87293,-7.39346 9.34527,-12.201819 12.36043,-4.665376 0.77885,3.242508 1.09358,8.211232 6.50181,2.732445 -0.4205,-7.13803 9.3368,-4.949201 11.73594,2.190024 0.76789,10.878423 0.23109,21.822883 0.3845,32.730583 5.96486,4.57225 -1.173,9.35557 -4.56782,12.79494 -9.9203,9.69553 -19.25563,20.05763 -29.706,29.17189 -5.71988,4.4101 -9.16403,13.22718 -17.21127,14.25058 -7.1395,-1.00644 -13.75004,-6.98298 -21.3044,-4.17585 -7.04387,2.66457 -11.365042,9.4629 -16.956969,14.20507 -4.07974,4.8029 -10.480061,8.36496 -12.100789,14.7596 -1.471759,7.81538 -9.280903,13.29741 -17.082959,12.54121 z m 4.773057,-4.74342 c 8.608539,-1.44101 7.125921,-11.61466 12.461562,-16.30399 7.173607,-7.30784 14.334541,-14.74404 21.753588,-21.76255 6.48943,-4.03126 14.83824,-4.71293 21.67996,-1.08569 3.56504,3.88383 14.41313,2.13555 11.79672,-3.47231 -13.34489,-13.31027 -26.33545,-27.03605 -40.21728,-39.77167 -7.382872,3.25459 -2.940123,11.02349 -0.6562,16.33761 2.944935,8.12525 -0.377296,17.31329 -6.955334,22.62671 -6.810785,6.6558 -13.114894,13.91781 -20.569617,19.85909 -7.45917,1.29966 -15.922022,7.2838 -12.96417,15.99319 1.596234,5.7074 7.990991,9.1997 13.670771,7.57961 z m -4.330061,-9.46215 c -1.826672,-9.56042 9.140628,2.1174 0,0 z M 141.9495,172.86563 c 0.89382,-6.05625 -8.14553,-9.74001 -11.28293,-14.62392 -9.47318,-9.14122 -18.31955,-19.02537 -28.28464,-27.60163 -7.250324,2.97036 5.50939,9.71948 7.53262,13.44908 9.8271,9.64897 19.26704,19.71823 29.43613,29.00337 0.74649,0.61551 1.92023,0.37732 2.59882,-0.2269 z m 37.36416,-39.3763 c -12.85461,-13.81996 -26.42715,-26.98593 -39.98025,-40.123981 -4.94565,2.59758 -9.45654,8.877461 -14.15656,12.935571 -6.52928,6.84243 -13.83338,13.09164 -19.70088,20.47338 13.59854,13.73166 27.15669,27.5399 41.18694,40.82191 11.09564,-11.08785 22.19128,-22.1757 33.28691,-33.26356 -0.21205,-0.28111 -0.42411,-0.56221 -0.63616,-0.84332 z m -1.29763,-21.64644 c -1.12019,-4.01732 2.91731,-15.270937 -3.56115,-13.923797 -0.11176,7.470947 -11.09866,11.992777 -13.9364,3.460777 0.17357,-3.142452 -0.89779,-12.401405 -4.90632,-6.726673 0.69161,3.045414 -1.48146,7.400753 1.05022,9.735393 7.02359,6.88944 13.90741,13.92679 21.1061,20.63358 0.34163,-4.37832 0.18868,-8.78983 0.24755,-13.17928 z"
           id="path95-7-6"
           sodipodi:nodetypes="ccccccccccccccccccccccccccccccccccccccccccccccccccccc" />
        <g
           id="path494-1-9"
           style="opacity:0.804233;fill:#fad213;fill-opacity:1"
           transform="matrix(0.26458333,0,0,0.26458333,188.38489,7.8345324)">
          <path
             style="color:#000000;fill:#fad213;fill-opacity:1;stroke-width:3.59708;stroke-linecap:round;stroke-linejoin:round;-inkscape-stroke:none"
             d="m -472.82469,797.06272 c -31.14289,-4.57389 -45.26895,-47.11245 -22.80115,-69.23028 19.84559,-15.48281 48.16056,-17.14167 63.21528,-40.13245 24.80999,-25.9007 52.56704,-49.44448 74.45385,-77.88034 16.88543,-27.95968 9.11698,-62.48629 -4.98176,-89.79993 -12.33703,-18.34955 15.82738,-45.64267 26.57005,-18.82005 47.21894,46.55282 94.0851,93.4613 141.02622,140.29375 -14.01475,22.82206 -38.02505,13.11612 -57.35458,2.82532 -33.07219,-13.84587 -71.61123,0.0325 -93.50319,27.10445 -24.6939,25.92635 -52.94486,49.06793 -74.03732,78.11636 -4.69684,24.16432 -20.90924,50.70498 -49.11099,47.8166 z m 10.33276,-32.42193 c 26.03846,-33.11876 -39.40078,-9.41231 0,0 z"
             id="path38849" />
          <path
             style="color:#000000;fill:#fad213;fill-opacity:1;stroke-linecap:round;stroke-linejoin:round;-inkscape-stroke:none"
             d="m -351.35742,485.90039 c -31.55644,16.10385 -5.81907,46.46108 -0.19336,69.66992 5.98489,27.81555 -4.34652,57.07316 -26.43958,74.94759 -27.43964,26.20755 -51.86175,56.23106 -82.44526,78.77615 -22.54697,4.68409 -47.91221,18.34668 -48.01165,44.62392 -3.00832,31.28865 33.90696,56.42564 61.70581,40.69285 25.69678,-9.69549 19.76972,-42.28772 38.65496,-58.01541 28.168,-28.74677 55.35958,-58.94043 86.55235,-84.3866 26.78828,-17.5305 60.80503,-12.52006 87.77164,1.65498 12.88663,12.20003 38.81469,-0.91454 38.62192,-14.70956 -51.35532,-51.08063 -102.28365,-102.62016 -154.30253,-153.00965 l -1.91406,-0.24414 z m 0.50976,3.73047 c 51.40996,50.18433 102.05379,101.14785 152.94918,151.85349 -14.91043,24.56638 -39.54717,6.32214 -59.44636,-0.71115 -32.76152,-10.96553 -68.81842,3.38506 -90.13797,29.37667 -24.77265,26.084 -53.2604,49.25665 -74.33222,78.53851 -4.11712,26.70088 -26.4745,55.38846 -56.35493,44.98929 -30.53645,-8.82532 -36.34222,-55.14974 -8.49439,-70.83356 27.17519,-6.73378 48.44448,-24.10252 66.68189,-44.88249 21.61329,-23.48184 47.75563,-43.53923 65.20117,-70.39527 15.34975,-27.96876 7.1425,-61.37435 -6.48921,-88.22007 -8.68282,-12.00647 1.58249,-22.36153 10.42284,-29.71542 z m -113.86328,255.70117 c -31.76914,6.1513 11.85207,39.60144 9.66338,7.40153 -1.22718,-4.10317 -5.08114,-7.83315 -9.66338,-7.40153 z m -0.0801,3.5957 c 27.28276,16.12363 -28.01549,19.55301 0,0 z"
             id="path38851" />
        </g>
        <g
           id="path16984-5-3"
           style="opacity:1;stroke:#00ff00;fill:#00ff00"
           transform="matrix(0.26458333,0,0,0.26458333,188.38489,7.8345324)">
          <path
             style="color:#000000;fill:#00ff00;stroke:#00ff00;stroke-width:2.54352;stroke-linecap:round;stroke-linejoin:round;-inkscape-stroke:none"
             d="m -58.426022,422.69828 c -22.265194,-20.45718 -43.219848,-42.295 -64.771828,-63.49871 -0.17989,-11.65779 -2.1514,-47.61453 14.11664,-30.43105 3.75934,24.78867 31.700056,36.33584 56.432353,11.70856 13.107003,-14.14167 -5.817962,53.54277 -2.890484,62.75337 -1.677743,3.46536 2.672042,23.0852 -2.886681,19.46783 z"
             id="path38855"
             sodipodi:nodetypes="cccccc" />
          <path
             style="color:#000000;fill:#00ff00;stroke-linecap:round;stroke-linejoin:round;-inkscape-stroke:none;stroke:#00ff00"
             d="m -113.69141,322.00977 c -15.55173,2.02664 -12.2833,29.09297 -8.26417,40.22188 21.83883,21.05624 42.264839,43.94306 65.533705,63.24303 5.031155,-20.14484 1.305008,-45.00649 1.541012,-66.6582 -10.819467,8.7359 -37.92584,23.70315 -48.848777,-0.013 -8.21241,-10.41232 3.22027,-30.46991 -9.96177,-36.79372 z m -0.46289,2.50195 c 6.06712,18.1719 5.11822,57.18213 38.801503,49.45295 11.462011,-0.37007 22.412389,-24.3443 18.520076,0.13245 -2.113995,11.84645 4.207116,42.97398 -2.755509,45.916 -21.246648,-19.95653 -41.5894,-40.85037 -62.32779,-61.33148 2.15443,-9.71123 -5.01922,-33.51696 7.76172,-34.16992 z"
             id="path38857" />
        </g>
        <g
           id="path20379-9-3"
           style="opacity:1"
           transform="matrix(0.26458333,0,0,0.26458333,188.38489,7.8345324)">
          <path
             style="color:#000000;fill:#00ff00;stroke-width:3.59708;stroke-linecap:round;stroke-linejoin:round;-inkscape-stroke:none"
             d="m -58.42602,422.69828 c -14.720333,-20.8247 -7.37758,-54.23746 1.169918,-68.97084 5.107507,-30.79126 25.762012,-4.38113 17.612555,13.80169 -0.07485,25.03661 0.452407,50.09541 -0.566966,75.11686 -6.071836,-6.64924 -12.143671,-13.29847 -18.215507,-19.94771 z"
             id="path38861" />
          <path
             style="color:#000000;fill:#00ff00;stroke-linecap:round;stroke-linejoin:round;-inkscape-stroke:none"
             d="m -46.494141,336.87305 c -16.575407,10.0697 -21.232362,37.87862 -22.042651,57.55734 -1.586627,21.1528 13.872522,35.54807 26.99773,49.42898 9.110032,-9.75184 0.961967,-35.25191 3.745959,-50.30961 -4.002482,-17.00527 8.833048,-47.40448 -8.701038,-56.67671 z m -0.27539,3.41992 c 11.945522,16.21642 2.099667,44.19751 5.362844,64.75624 -1.327088,11.8718 5.326087,46.21606 -9.557826,23.15295 -18.40374,-17.45093 -17.461776,-48.57461 -6.16879,-69.42965 3.524535,-5.64545 1.065302,-17.6915 10.363772,-18.47954 z"
             id="path38863" />
        </g>
      </g>
    </g>
  </g>
</svg>
