<?xml version="1.0" encoding="UTF-8" standalone="no"?>
<!-- Created with Inkscape (http://www.inkscape.org/) -->

<svg
   width="112.05104mm"
   height="115.97491mm"
   viewBox="0 0 112.05104 115.97491"
   version="1.1"
   id="svg5"
   xml:space="preserve"
   inkscape:version="1.2.2 (732a01da63, 2022-12-09)"
   sodipodi:docname="joinha.svg"
   xmlns:inkscape="http://www.inkscape.org/namespaces/inkscape"
   xmlns:sodipodi="http://sodipodi.sourceforge.net/DTD/sodipodi-0.dtd"
   xmlns="http://www.w3.org/2000/svg"
   xmlns:svg="http://www.w3.org/2000/svg"><sodipodi:namedview
     id="namedview7"
     pagecolor="#ffffff"
     bordercolor="#999999"
     borderopacity="1"
     inkscape:showpageshadow="0"
     inkscape:pageopacity="0"
     inkscape:pagecheckerboard="0"
     inkscape:deskcolor="#d1d1d1"
     inkscape:document-units="mm"
     showgrid="false"
     inkscape:zoom="0.76167929"
     inkscape:cx="504.80564"
     inkscape:cy="141.79196"
     inkscape:window-width="1920"
     inkscape:window-height="1009"
     inkscape:window-x="1912"
     inkscape:window-y="-8"
     inkscape:window-maximized="1"
     inkscape:current-layer="layer1" /><defs
     id="defs2" /><g
     inkscape:label="Camada 1"
     inkscape:groupmode="layer"
     id="layer1"
     transform="translate(-42.048029,-54.559913)"><g
       id="g449"><path
         style="fill:#000000;stroke-width:0.264583"
         d="m 112.16261,170.39526 c -10.8097,-0.28301 -19.597709,-1.12393 -25.135417,-2.40522 -1.236927,-0.28619 -4.153958,-1.07396 -6.482292,-1.75058 -2.328333,-0.67663 -5.661009,-1.54966 -7.40595,-1.94006 l -3.172616,-0.70982 -0.297754,1.17268 c -0.504383,1.98647 -1.983867,3.46363 -4.041516,4.03519 -1.548223,0.43005 -17.937896,0.34869 -19.416786,-0.0964 -1.73613,-0.5225 -2.75903,-1.34599 -3.50811,-2.82421 l -0.65414,-1.2909 v -24.97031 -24.97031 l 0.61585,-1.16609 c 0.40426,-0.76544 1.056,-1.43881 1.89689,-1.95984 l 1.28104,-0.79375 9.546336,-0.0804 c 10.962534,-0.0923 11.282376,-0.0496 13.079124,1.74716 1.019734,1.01974 1.278983,1.15113 2.030659,1.02914 2.374072,-0.38526 5.377715,-2.511 8.038577,-5.68907 1.911773,-2.28338 3.074596,-4.14361 6.233088,-9.97143 3.341797,-6.16603 5.326248,-9.11428 8.643729,-12.84174 3.151511,-3.54099 4.435042,-5.42684 5.359602,-7.8747 1.498936,-3.968578 2.044366,-6.935868 2.521256,-13.716321 0.27448,-3.902425 0.61532,-4.859949 2.3132,-6.498457 1.34555,-1.298505 3.04647,-2.015117 5.2745,-2.22219 7.1838,-0.667665 13.42585,5.737288 14.66481,15.047545 0.24632,1.850981 0.22238,2.949207 -0.13198,6.055333 -0.70075,6.14227 -1.45734,8.61696 -4.61487,15.09453 -2.65474,5.44612 -2.79301,7.27855 -0.59392,7.87071 0.55398,0.14917 5.40375,0.3939 10.77727,0.54384 13.36351,0.37289 15.48497,0.63662 18.8241,2.34012 1.98205,1.01117 4.21246,3.34378 5.29891,5.54173 0.95782,1.93772 0.99287,2.10718 0.99287,4.80078 0,2.57088 -0.0647,2.92864 -0.81621,4.51445 -0.45793,0.96626 -1.34934,2.24108 -2.03073,2.90414 l -1.2145,1.18186 1.18893,1.27106 c 0.65391,0.69909 1.50266,1.95207 1.88611,2.7844 0.60216,1.30708 0.69866,1.87394 0.70808,4.15916 0.01,2.33002 -0.0738,2.82697 -0.69889,4.16334 -1.01562,2.17138 -1.98475,3.33445 -3.70678,4.44862 l -1.50899,0.97633 0.62241,0.58472 c 0.34232,0.3216 0.96183,1.31939 1.37669,2.21732 0.66559,1.44061 0.75308,1.92817 0.74394,4.14613 -0.008,1.98713 -0.13824,2.83588 -0.62096,4.05263 -0.83009,2.09234 -3.21906,4.61941 -5.46182,5.77758 -1.2622,0.6518 -1.66885,0.99013 -1.54122,1.28229 0.0953,0.21828 0.35979,1.07589 0.58765,1.90579 1.30915,4.76817 -2.84243,10.11844 -9.09288,11.71827 -2.04855,0.52433 -11.35699,0.69292 -22.35729,0.40493 z m 22.95039,-6.05697 c 2.76724,-1.25096 4.10593,-3.67154 3.08443,-5.57713 -0.71586,-1.3354 -1.94735,-1.69601 -5.08033,-1.48764 -3.10896,0.20679 -4.45314,-0.27194 -5.20351,-1.85322 -0.43329,-0.91309 -0.4449,-1.12451 -0.11324,-2.06226 0.20325,-0.57468 0.70596,-1.29378 1.11714,-1.59801 0.70105,-0.5187 1.10462,-0.55496 6.48229,-0.58251 3.80135,-0.0195 6.00191,-0.13709 6.52728,-0.34888 3.88355,-1.56556 5.21294,-6.37469 2.4701,-8.93568 -1.30228,-1.21593 -2.27185,-1.40169 -7.31609,-1.40169 -4.48819,0 -4.77817,-0.0311 -5.6309,-0.60394 -0.56517,-0.37966 -1.03774,-1.00195 -1.27257,-1.67577 -0.33921,-0.97331 -0.32705,-1.16708 0.13229,-2.10804 0.89086,-1.82491 1.47415,-1.96136 8.3857,-1.96184 4.84138,-2.6e-4 6.22066,-0.081 7.00784,-0.40991 3.93952,-1.64604 4.43646,-6.75086 0.89911,-9.23604 l -1.14653,-0.8055 -6.17717,-0.13229 c -6.98778,-0.14965 -7.31919,-0.24342 -8.03333,-2.27293 -0.31662,-0.89979 -0.30992,-1.1631 0.0515,-2.02386 0.65706,-1.56478 1.3124,-1.72054 8.29919,-1.97252 l 6.13465,-0.22125 1.14139,-0.79315 c 3.88056,-2.69662 2.69624,-8.28128 -2.21101,-10.42601 -1.89506,-0.82824 -4.61673,-1.05934 -15.6976,-1.3329 -10.99639,-0.27149 -12.38958,-0.42083 -14.6263,-1.56788 -2.10797,-1.08101 -2.96849,-2.72197 -2.96849,-5.66071 0,-2.40845 0.62009,-4.31993 3.13023,-9.6492 2.22192,-4.71732 2.82956,-6.52924 3.34849,-9.9848 0.9967,-6.637109 0.0159,-11.727658 -2.92059,-15.157982 -1.56427,-1.827355 -4.71354,-3.066432 -6.59411,-2.594442 -1.14151,0.286502 -1.39711,1.091572 -1.85609,5.846167 -1.02175,10.584457 -2.88893,15.296577 -8.654606,21.841267 -3.622478,4.11191 -5.060541,6.28002 -9.145433,13.78821 -3.395355,6.2408 -5.264272,8.92249 -8.368184,12.00743 -2.06453,2.05191 -3.141236,2.89627 -4.723468,3.70417 l -2.049386,1.04643 -0.0011,20.43402 -0.0011,20.43403 0.727604,0.1599 c 1.84008,0.40439 6.038967,1.52426 8.929688,2.38161 9.542392,2.83013 16.896735,3.50367 37.703125,3.45296 l 12.83229,-0.0313 1.38685,-0.62694 z m -70.898847,-0.97556 0.588039,-0.41188 v -23.10364 c 0,-21.16813 -0.03665,-23.13407 -0.437539,-23.46677 -0.349361,-0.28994 -2.033336,-0.36313 -8.355706,-0.36313 -7.532748,0 -7.936442,0.025 -8.293709,0.51359 -0.317509,0.43422 -0.375549,4.06093 -0.375549,23.46677 v 22.95318 l 0.58804,0.41188 c 0.498892,0.34944 1.73341,0.41188 8.143213,0.41188 6.409804,0 7.644321,-0.0624 8.143211,-0.41188 z"
         id="path248" /><path
         style="fill:#ffffff;fill-rule:evenodd;stroke-width:0.789046;stroke-linecap:round;stroke-linejoin:round"
         d="m 185.74143,618.37377 c -2.95448,-0.32422 -3.58193,-0.5274 -5.33311,-1.727 l -1.42674,-0.97734 0.16947,-82.42817 c 0.1642,-79.86921 0.29327,-89.87152 1.19015,-92.23047 0.67609,-1.77826 1.67384,-1.93337 14.29452,-2.22231 12.97889,-0.29715 39.37972,-0.0611 44.24638,0.39557 1.77024,0.16612 3.49925,0.45222 3.84225,0.63579 0.343,0.18357 0.78136,0.8859 0.97413,1.56073 0.77555,2.71499 0.97217,22.04345 0.98143,96.47674 l 0.01,77.854 -1.16691,0.89004 c -2.50087,1.90751 -2.25778,1.89162 -30.01419,1.96283 -13.99047,0.0359 -26.48565,-0.0498 -27.76707,-0.19041 z"
         id="path442"
         transform="scale(0.26458333)" /><path
         style="fill:#ffffff;fill-rule:evenodd;stroke-width:1.57809;stroke-linecap:round;stroke-linejoin:round"
         d="m 422.42188,622.89109 c -55.64178,-0.70385 -74.71837,-3.07706 -112.58019,-14.00546 -5.41566,-1.56317 -14.79583,-4.09991 -20.84481,-5.63719 l -10.99814,-2.79506 0.16681,-76.82938 0.16682,-76.82938 6.37364,-3.41072 c 7.91083,-4.23332 12.97942,-8.23409 20.94245,-16.53044 11.13072,-11.59662 16.86605,-20.10718 32.35109,-48.00522 13.42236,-24.1819 20.07826,-34.08156 31.61031,-47.01567 7.3323,-8.22375 15.19502,-19.339 19.20271,-27.14618 7.63585,-14.87499 10.90904,-27.91972 13.86024,-55.23757 1.71944,-15.91605 2.37411,-18.83047 4.76756,-21.22391 1.84797,-1.84798 2.10098,-1.90836 6.74704,-1.61019 8.97601,0.57605 17.75539,6.06818 23.2972,14.57408 6.12466,9.40048 8.73412,19.58245 8.76219,34.18957 0.0389,20.25902 -3.02664,32.44357 -14.2195,56.51761 -5.3758,11.56246 -8.68772,19.74507 -9.92597,24.52367 -3.27321,12.63171 -0.99526,25.04717 5.5386,30.18695 8.21662,6.46349 14.44303,7.43455 54.8466,8.55381 30.98706,0.85841 49.01671,1.8218 55.66319,2.97431 10.28675,1.78373 18.86809,7.70381 22.82876,15.74907 4.78226,9.71416 2.43071,18.89749 -6.52777,25.49235 l -3.90613,2.87553 -15.32037,0.46252 c -18.13889,0.54761 -30.19863,1.42974 -33.37257,2.44109 -3.20961,1.0227 -5.01759,2.8717 -6.19936,6.33999 -1.07723,3.1615 -0.66731,6.2221 1.3585,10.14297 2.2838,4.42021 5.60653,5.00983 31.90806,5.6621 l 20.83097,0.51661 3.78569,2.92716 c 10.63924,8.22647 12.16049,20.80811 3.58917,29.68463 -5.29681,5.48542 -6.48556,5.71179 -33.28215,6.33767 -15.68351,0.36632 -23.77153,0.80482 -25.48349,1.3816 -3.00282,1.0117 -5.16291,3.41919 -6.71552,7.48464 -0.94971,2.48679 -1.01785,3.43022 -0.39734,5.50132 1.17724,3.92926 3.4735,6.84919 6.64708,8.45244 2.69139,1.35964 3.8384,1.47966 14.43648,1.51042 22.64343,0.0657 28.66064,1.13462 33.42217,5.93704 9.21103,9.29015 4.93407,25.88132 -8.2248,31.90565 -3.58838,1.64281 -3.95525,1.6734 -25.4021,2.11809 -24.41946,0.50633 -24.59703,0.54045 -27.76985,5.33489 -3.94289,5.95812 -2.11903,13.59923 4.03783,16.91655 1.54199,0.83083 4.75648,1.14189 14.77155,1.42945 14.38059,0.4129 15.8383,0.81007 18.4433,5.02505 4.25579,6.88601 -0.25356,15.38067 -11.05132,20.81833 l -4.45673,2.24438 -25.92018,0.23378 c -14.2561,0.12858 -40.24707,0.0525 -57.75772,-0.16895 z"
         id="path444"
         transform="scale(0.26458333)" /></g></g></svg>
