<?xml version="1.0" encoding="UTF-8" standalone="no"?>
<!-- Created with Inkscape (http://www.inkscape.org/) -->

<svg
   width="93.734665mm"
   height="82.993477mm"
   viewBox="0 0 93.734665 82.993477"
   version="1.1"
   id="svg4212"
   inkscape:version="1.2.2 (732a01da63, 2022-12-09)"
   sodipodi:docname="XYZ.svg"
   xmlns:inkscape="http://www.inkscape.org/namespaces/inkscape"
   xmlns:sodipodi="http://sodipodi.sourceforge.net/DTD/sodipodi-0.dtd"
   xmlns="http://www.w3.org/2000/svg"
   xmlns:svg="http://www.w3.org/2000/svg">
  <sodipodi:namedview
     id="namedview4214"
     pagecolor="#ffffff"
     bordercolor="#999999"
     borderopacity="1"
     inkscape:showpageshadow="0"
     inkscape:pageopacity="0"
     inkscape:pagecheckerboard="0"
     inkscape:deskcolor="#d1d1d1"
     inkscape:document-units="mm"
     showgrid="false"
     inkscape:zoom="4.3087087"
     inkscape:cx="178.82388"
     inkscape:cy="204.46961"
     inkscape:window-width="1920"
     inkscape:window-height="1009"
     inkscape:window-x="1912"
     inkscape:window-y="-8"
     inkscape:window-maximized="1"
     inkscape:current-layer="g4293" />
  <defs
     id="defs4209" />
  <g
     inkscape:label="Camada 1"
     inkscape:groupmode="layer"
     id="layer1"
     transform="translate(-48.766379,-85.597093)">
    <g
       id="g4293">
      <g
         id="path232"
         style="fill:#000000;fill-opacity:0;stroke:#ff0000;stroke-width:3;stroke-dasharray:none;stroke-opacity:1">
        <path
           style="color:#000000;fill:#000000;fill-opacity:0;stroke:#ff0000;stroke-width:3;stroke-dasharray:none;stroke-opacity:1"
           d="M 95.427841,141.28551 58.533317,163.10227"
           id="path4307" />
        <path
           style="color:#000000;fill:#000000;fill-opacity:0;stroke:#ff0000;stroke-width:3;stroke-dasharray:none;stroke-opacity:1"
           d="m 94.871094,140.3418 -36.894532,21.81836 1.115235,1.88476 36.892578,-21.8164 z"
           id="path4309" />
        <g
           id="g4297"
           style="fill:#000000;fill-opacity:0;stroke:#ff0000;stroke-width:3;stroke-dasharray:none;stroke-opacity:1">
          <g
             id="path4299"
             style="fill:#000000;fill-opacity:0;stroke:#ff0000;stroke-width:3;stroke-dasharray:none;stroke-opacity:1">
            <path
               style="color:#000000;fill:#000000;fill-opacity:0;fill-rule:evenodd;stroke:#ff0000;stroke-width:3;stroke-dasharray:none;stroke-opacity:1"
               d="m 53.093362,166.31907 5.367699,-9.53641 5.575039,9.428 z"
               id="path4303" />
            <path
               style="color:#000000;fill:#000000;fill-opacity:0;fill-rule:evenodd;stroke:#ff0000;stroke-width:3;stroke-dasharray:none;stroke-opacity:1"
               d="m 58.445312,155.32227 -6.607421,11.74023 1.263671,-0.0137 12.207032,-0.1211 z m 0.03125,2.92187 4.28711,7.24805 -8.414063,0.0859 z"
               id="path4305" />
          </g>
        </g>
      </g>
      <g
         id="path232-0"
         style="stroke:#00b050;stroke-width:3;stroke-dasharray:none;stroke-opacity:1">
        <path
           style="color:#000000;fill:#ffffff;stroke:#00b050;stroke-width:3;stroke-dasharray:none;stroke-opacity:1"
           d="m 95.612371,141.28651 37.516669,21.81477"
           id="path4323" />
        <path
           style="color:#000000;fill:#00b050;stroke:#00b050;stroke-width:3;stroke-dasharray:none;stroke-opacity:1"
           d="m 96.167969,140.33203 -1.111328,1.91016 37.517579,21.81445 1.10937,-1.91016 z"
           id="path4325" />
        <g
           id="g4313"
           style="stroke:#00b050;stroke-width:3;stroke-dasharray:none;stroke-opacity:1">
          <g
             id="path4315"
             style="stroke:#00b050;stroke-width:3;stroke-dasharray:none;stroke-opacity:1">
            <path
               style="color:#000000;fill:#00b050;fill-rule:evenodd;stroke:#00b050;stroke-width:3;stroke-dasharray:none;stroke-opacity:1"
               d="m 138.63806,166.30461 -11.0346,-0.0284 5.55169,-9.5477 z"
               id="path4319" />
            <path
               style="color:#000000;fill:#00b050;fill-rule:evenodd;stroke:#00b050;stroke-width:3;stroke-dasharray:none;stroke-opacity:1"
               d="m 133.16016,155.25586 -6.83399,11.75391 13.58399,0.0351 -0.63282,-1.10547 z m -0.01,2.94531 4.2168,7.36328 -8.48438,-0.0215 z"
               id="path4321" />
          </g>
        </g>
      </g>
      <g
         id="path232-09"
         style="stroke:#00b0f0;stroke-width:3;stroke-dasharray:none;stroke-opacity:1">
        <path
           style="color:#000000;fill:#ffffff;stroke:#00b0f0;stroke-width:3;stroke-dasharray:none;stroke-opacity:1"
           d="M 95.1246,143.45446 95.05034,97.16666"
           id="path4339" />
        <path
           style="color:#000000;fill:#00b0f0;stroke:#00b0f0;stroke-width:3;stroke-dasharray:none;stroke-opacity:1"
           d="m 96.255859,97.164062 -2.412109,0.0039 0.07422,46.289058 2.412109,-0.004 z"
           id="path4341" />
        <g
           id="g4329"
           style="stroke:#00b0f0;stroke-width:3;stroke-dasharray:none;stroke-opacity:1">
          <g
             id="path4331"
             style="stroke:#00b0f0;stroke-width:3;stroke-dasharray:none;stroke-opacity:1">
            <path
               style="color:#000000;fill:#00b0f0;fill-rule:evenodd;stroke:#00b0f0;stroke-width:3;stroke-dasharray:none;stroke-opacity:1"
               d="m 95.039176,90.207991 6.046774,10.422299 -12.06008,0.0194 z"
               id="path4335" />
            <path
               style="color:#000000;fill:#00b0f0;fill-rule:evenodd;stroke:#00b0f0;stroke-width:3;stroke-dasharray:none;stroke-opacity:1"
               d="m 95.037109,88.601562 -0.695312,1.205079 -6.708985,11.648439 14.847658,-0.0234 z m 0.0059,3.212891 4.648437,8.013672 -9.273437,0.01563 z"
               id="path4337" />
          </g>
        </g>
      </g>
      <g
         id="path544"
         style="stroke:#000000;stroke-width:4;stroke-dasharray:none">
        <path
           style="color:#000000;fill:#000000;stroke-width:4;stroke:#000000;stroke-dasharray:none"
           d="m 99.111044,141.63002 a 4.0538468,4.0538468 0 0 1 -4.053846,4.05385 4.0538468,4.0538468 0 0 1 -4.053847,-4.05385 4.0538468,4.0538468 0 0 1 4.053847,-4.05385 4.0538468,4.0538468 0 0 1 4.053846,4.05385 z"
           id="path4345" />
        <path
           style="color:#000000;fill:#000000;stroke:#000000;stroke-width:4;stroke-dasharray:none"
           d="m 95.056641,137.15234 c -2.467792,0 -4.476563,2.01073 -4.476563,4.47852 0,2.46779 2.008771,4.47656 4.476563,4.47656 2.467791,0 4.478515,-2.00877 4.478515,-4.47656 0,-2.46779 -2.010724,-4.47852 -4.478515,-4.47852 z m 0,0.84766 c 2.00996,0 3.630859,1.6209 3.630859,3.63086 0,2.00996 -1.620899,3.62891 -3.630859,3.62891 -2.00996,0 -3.628907,-1.61895 -3.628907,-3.62891 0,-2.00996 1.618947,-3.63086 3.628907,-3.63086 z"
           id="path4347" />
      </g>
      <g
         aria-label="Z"
         id="text3371"
         style="font-size:17.7681px;font-family:arial;-inkscape-font-specification:arial;text-align:center;text-anchor:middle;stroke:#00b0f0;stroke-width:2.37508"
         transform="matrix(1.3336047,0,0,1.3336047,-30.317672,-34.797197)">
        <g
           id="path4349">
          <path
             style="color:#000000;-inkscape-font-specification:arial;fill:#000000;stroke:none;-inkscape-stroke:none"
             d="m 72.041762,104.18439 v -1.56165 l 6.515549,-8.146607 q 0.694067,-0.867583 1.318726,-1.509595 H 72.779208 V 91.46562 h 9.109622 v 1.500918 l -7.140208,8.823322 -0.772149,0.89361 h 8.120577 v 1.50092 z"
             id="path4354" />
          <path
             style="color:#000000;-inkscape-font-specification:arial;fill:#00b0f0;stroke:none;-inkscape-stroke:none"
             d="m 71.591797,90.277344 v 3.876953 h 5.703125 l -6.441406,8.052733 v 3.16406 h 1.1875 11.24414 v -3.875 h -6.769531 l 6.560547,-8.109371 v -3.109375 z"
             id="path4356" />
        </g>
      </g>
      <g
         aria-label="X"
         id="text3371-3"
         style="font-size:17.7681px;font-family:arial;-inkscape-font-specification:arial;text-align:center;text-anchor:middle;fill:#ff0000;stroke:#ff0000;stroke-width:2.37508"
         transform="matrix(1.3692929,0,0,1.3692929,-30.526912,-59.282353)">
        <g
           id="path4358">
          <path
             style="color:#000000;-inkscape-font-specification:arial;stroke:none;-inkscape-stroke:none"
             d="m 60.268045,149.81578 4.919196,-6.62833 -4.337915,-6.09044 h 2.004117 l 2.30777,3.26212 q 0.720094,1.01507 1.023748,1.56164 0.425116,-0.69406 1.006397,-1.44886 l 2.55937,-3.3749 h 1.8306 l -4.468053,5.995 4.815086,6.72377 h -2.082199 l -3.201382,-4.53746 q -0.26895,-0.39041 -0.555253,-0.85023 -0.425115,0.69407 -0.607308,0.95434 l -3.192705,4.43335 z"
             id="path4363" />
          <path
             style="color:#000000;-inkscape-font-specification:arial;stroke:none;-inkscape-stroke:none"
             d="m 58.544922,135.91016 5.173828,7.26367 -5.810547,7.83008 h 2.359375 2.630859 l 3.199219,-4.44141 3.132813,4.44141 h 5.009765 l -5.65625,-7.89844 5.363282,-7.19531 h -4.78711 l -2.914062,3.84375 c -0.01243,0.0162 -0.02086,0.0307 -0.0332,0.0469 -0.0357,-0.0507 -0.04479,-0.0744 -0.08203,-0.12695 l -0.002,-0.002 -2.660156,-3.76171 z"
             id="path4365" />
        </g>
      </g>
      <g
         aria-label="Y"
         id="text3371-3-1"
         style="font-size:17.7681px;font-family:arial;-inkscape-font-specification:arial;text-align:center;text-anchor:middle;fill:#ff0000;stroke:#00b050;stroke-width:2.37508"
         transform="matrix(1.365009,0,0,1.365009,-45.069758,-58.667804)">
        <g
           id="path4367">
          <path
             style="color:#000000;-inkscape-font-specification:arial;stroke:none;-inkscape-stroke:none"
             d="m 125.08745,149.81578 v -5.38769 l -4.90184,-7.33108 h 2.04749 l 2.50732,3.83472 q 0.69406,1.0758 1.2927,2.15161 0.5726,-0.99772 1.38813,-2.24704 l 2.46393,-3.73929 h 1.96074 l -5.07536,7.33108 v 5.38769 z"
             id="path4372" />
          <path
             style="color:#000000;-inkscape-font-specification:arial;fill:#00b050;stroke:none;-inkscape-stroke:none"
             d="m 117.96289,135.91016 5.9375,8.8789 v 6.21485 h 1.1875 2.87109 v -6.20508 l 6.1543,-8.88867 h -4.86719 l -2.81836,4.27539 v 0.002 c -0.14777,0.22637 -0.24435,0.40028 -0.38085,0.61523 -0.10712,-0.17151 -0.19804,-0.34425 -0.3086,-0.51562 l -0.002,-0.002 -2.86133,-4.375 z"
             id="path4374" />
        </g>
      </g>
    </g>
  </g>
</svg>
